<svg width="154" height="174" viewBox="0 0 154 174" fill="none" xmlns="http://www.w3.org/2000/svg">
<g clip-path="url(#clip0_570_1736)">
<path d="M152.703 170.112C152.703 172.293 150.994 174 148.762 174C146.53 174 144.797 172.293 144.797 170.112C144.797 167.93 146.554 166.272 148.762 166.272C150.97 166.272 152.703 167.979 152.703 170.112ZM145.788 170.112C145.788 171.818 147.053 173.179 148.786 173.179C150.519 173.179 151.72 171.818 151.72 170.136C151.72 168.454 150.478 167.045 148.762 167.045C147.045 167.045 145.78 168.429 145.78 170.112H145.788ZM148.149 172.132H147.255V168.293C147.609 168.22 148.101 168.172 148.73 168.172C149.455 168.172 149.785 168.293 150.067 168.454C150.277 168.615 150.446 168.92 150.446 169.299C150.446 169.717 150.116 170.047 149.648 170.192V170.241C150.027 170.378 150.237 170.659 150.35 171.174C150.47 171.762 150.535 171.996 150.632 172.132H149.673C149.552 171.996 149.487 171.641 149.366 171.199C149.294 170.78 149.06 170.587 148.569 170.587H148.149V172.132ZM148.174 169.951H148.593C149.084 169.951 149.487 169.79 149.487 169.387C149.487 169.033 149.229 168.8 148.665 168.8C148.431 168.8 148.27 168.824 148.174 168.848V169.951Z" fill="black"/>
<path d="M31.6888 153.787L34.5739 147.983L34.5497 147.958L29.263 151.758L31.6968 153.778M30.8265 155.533L27.6915 152.925L24.9595 154.881L23.2832 153.489L34.9769 145.656L36.8063 147.178L31.1166 159.993L29.3919 158.56L30.8265 155.533Z" fill="#003876"/>
<path d="M35.2418 159.526C35.4513 160.009 35.9913 160.935 36.9906 161.522C37.8126 162.005 38.8442 161.925 39.5373 160.758C40.0289 159.929 39.8193 159.309 39.2471 158.206L38.6508 157.047C38.0141 155.815 37.8932 154.511 38.7797 153.014C40.0047 150.937 42.1565 150.744 43.873 151.75C44.9529 152.386 45.5332 153.151 45.7669 153.424L44.6306 155.155C44.2921 154.688 43.873 154.036 43.0027 153.529C42.0678 152.973 41.2458 153.255 40.7784 154.052C40.2706 154.913 40.5849 155.549 40.9395 156.258L41.6246 157.602C42.3741 159.075 42.5111 160.146 41.552 161.78C40.1578 164.139 38.0061 164.404 36.0638 163.253C35.0403 162.649 34.3473 162.014 34.041 161.361L35.266 159.526" fill="#003876"/>
<path d="M44.0511 164.396C44.3251 164.839 44.994 165.684 46.0578 166.119C46.9362 166.481 47.9516 166.248 48.4674 165C48.8381 164.107 48.5399 163.527 47.8146 162.521L47.0571 161.458C46.2512 160.331 45.953 159.059 46.6138 157.449C47.5326 155.211 49.636 154.72 51.4734 155.477C52.6339 155.96 53.3109 156.636 53.5849 156.87L52.6984 158.745C52.3035 158.327 51.7877 157.747 50.8609 157.361C49.8536 156.95 49.088 157.337 48.7334 158.198C48.3465 159.124 48.7575 159.711 49.2008 160.355L50.0712 161.587C51.0221 162.939 51.3123 163.978 50.5869 165.733C49.5393 168.268 47.452 168.832 45.3566 167.971C44.2525 167.52 43.4789 166.988 43.084 166.385L44.035 164.396" fill="#003876"/>
<path d="M57.5815 169.991C58.9193 170.313 60.3135 169.283 61.1838 165.668C62.0542 162.062 61.2967 160.508 59.9589 160.178C58.6211 159.856 57.2349 160.895 56.3565 164.501C55.4781 168.107 56.2437 169.661 57.5815 169.991ZM60.4102 158.343C62.8037 158.922 64.5122 161.482 63.3678 166.2C62.2235 170.917 59.5317 172.414 57.1382 171.835C54.7447 171.255 53.0362 168.695 54.1806 163.978C55.3249 159.26 58.0166 157.763 60.4102 158.343Z" fill="#003876"/>
<path d="M73.3286 173.694C72.8612 173.928 71.7974 174.04 70.7256 173.944C67.1312 173.622 65.5597 170.474 65.9063 166.546C66.2609 162.617 68.3723 159.8 71.8941 160.114C73.0949 160.218 74.0459 160.677 74.4649 160.911L74.1506 163.116C73.7316 162.827 73.0788 162.287 71.9828 162.183C70.1856 162.022 68.5174 163.269 68.2111 166.755C67.8968 170.241 69.3152 171.762 71.1124 171.923C72.1601 172.02 72.8854 171.786 73.4092 171.432L73.3286 173.694Z" fill="#003876"/>
<path d="M76.5938 160.484L78.7777 160.468L78.8503 173.96L76.6743 173.968L76.5938 160.484Z" fill="#003876"/>
<path d="M87.7384 168.26L85.6592 162.126H85.6269L84.5954 168.558L87.7464 168.26M88.3751 170.104L84.3133 170.49L83.7733 173.799L81.6055 174L84.2972 160.194L86.6665 159.969L91.7437 173.042L89.5114 173.251L88.3751 170.096V170.104Z" fill="#003876"/>
<path d="M93.1542 160.991L90.5511 161.531L90.1562 159.599L97.4658 158.093L97.8687 160.025L95.2818 160.557L97.6189 171.835L95.4833 172.277L93.1542 160.991Z" fill="#003876"/>
<path d="M99.127 157.538L101.214 156.902L105.195 169.79L103.108 170.426L99.127 157.538Z" fill="#003876"/>
<path d="M112.505 165.129C113.762 164.557 114.213 162.883 112.666 159.51C111.127 156.137 109.563 155.38 108.306 155.952C107.049 156.523 106.606 158.198 108.145 161.571C109.684 164.944 111.248 165.7 112.497 165.129M107.524 154.229C109.765 153.207 112.69 154.165 114.713 158.576C116.728 162.988 115.535 165.829 113.295 166.852C111.054 167.874 108.129 166.916 106.106 162.505C104.091 158.093 105.284 155.252 107.524 154.229Z" fill="#003876"/>
<path d="M113.471 151.508L115.566 149.995L124.955 156.298L124.987 156.282L118.798 147.677L120.401 146.525L128.283 157.481L126.172 159.003L116.839 152.756L116.807 152.772L122.948 161.313L121.352 162.456L113.471 151.508Z" fill="#003876"/>
<path d="M12.4837 140.448L11.4844 138.492L23.6293 132.301L24.6287 134.257L12.4837 140.448Z" fill="#003876"/>
<path d="M9.72653 134.974L8.75945 132.551L17.2375 124.887L17.2214 124.855L7.26853 128.816L6.53516 126.964L19.204 121.925L20.1791 124.364L11.7735 131.979L11.7896 132.011L21.662 128.083L22.4034 129.934L9.72653 134.974Z" fill="#003876"/>
<path d="M6.76146 120.919L7.49483 123.495L5.57678 124.034L3.51367 116.781L5.43172 116.241L6.15703 118.801L17.3591 115.622L17.9635 117.739L6.76146 120.919Z" fill="#003876"/>
<path d="M2.86901 113.939L1.66016 107.749L3.61044 107.37L4.40023 111.395L7.97038 110.703L7.22089 106.895L9.17923 106.509L9.92872 110.325L13.8776 109.552L13.0556 105.35L15.014 104.971L16.2551 111.331L2.86901 113.939Z" fill="#003876"/>
<path d="M6.70572 100.592C6.58483 99.4332 5.81923 98.7167 4.44113 98.8616C2.88574 99.0307 2.57144 99.7874 2.70844 101.019L2.80515 101.904L6.81049 101.478L6.71378 100.592M1.12887 104.303L0.72592 100.576C0.500267 98.4591 1.43511 96.9055 3.9173 96.6398C5.68222 96.4466 6.97167 97.2999 7.35044 98.604H7.40686C7.43909 98.1452 7.61639 97.6219 8.84136 97.1148L13.846 95.0057L14.0958 97.3321L9.80845 98.9824C8.76883 99.3849 8.47871 99.9886 8.56736 100.794L8.62377 101.293L14.4504 100.665L14.6842 102.854L1.12081 104.303H1.12887Z" fill="#003876"/>
<path d="M0.0967084 93.3071L0.0644722 90.6989L10.7346 86.5934L10.7266 86.5612L0.0241771 86.682L0 84.6856L13.6359 84.5327L13.6681 87.165L3.08661 91.2463V91.2866L13.7165 91.1658L13.7406 93.1542L0.0967084 93.3071Z" fill="#003876"/>
<path d="M9.01819 75.9353L2.54679 76.9174V76.9496L8.7603 79.115L9.02625 75.9272M10.9604 75.6294L10.6219 79.7349L13.8214 80.8618L13.6441 83.0514L0.378906 77.9397L0.580382 75.5408L14.4903 72.8038L14.3049 75.0659L10.9604 75.6374V75.6294Z" fill="#003876"/>
<path d="M3.44065 68.5937L3.00547 71.2341L1.03906 70.9121L2.27209 63.4659L4.2385 63.7959L3.80331 66.4202L15.2955 68.312L14.9328 70.4855L3.44065 68.5937Z" fill="#003876"/>
<path d="M2.91797 60.7369L3.42569 58.6037L16.6909 61.7673L16.1831 63.9006L2.91797 60.7369Z" fill="#003876"/>
<path d="M17.0444 54.5305C17.4957 53.2103 16.5851 51.721 13.031 50.5055C9.47701 49.2899 7.84103 49.9098 7.38972 51.23C6.93842 52.5502 7.85715 54.0394 11.4031 55.255C14.9572 56.4705 16.5931 55.8426 17.0444 54.5305ZM5.5845 50.6182C6.39041 48.2595 9.13048 46.7783 13.7725 48.3642C18.4145 49.95 19.6717 52.7917 18.8658 55.1503C18.0599 57.509 15.3198 58.9901 10.6778 57.4043C6.03581 55.8185 4.7786 52.9768 5.5845 50.6182Z" fill="#003876"/>
<path d="M8.91406 42.4716L10.1229 40.1612L21.462 41.57L21.4781 41.5378L11.9765 36.5951L12.9033 34.8241L24.9999 41.1272L23.783 43.4537L12.5164 42.061L12.5003 42.0932L21.9294 47.0037L21.0107 48.7666L8.91406 42.4716Z" fill="#003876"/>
<path d="M25.4995 31.5719L19.5117 28.9154L19.4875 28.9396L23.5573 34.1077L25.4915 31.5639M27.3048 32.3608L24.8065 35.6372L26.9018 38.3098L25.564 40.0566L17.1504 28.6015L18.6091 26.6856L31.8098 31.8617L30.4317 33.6649L27.3048 32.3447V32.3608Z" fill="#003876"/>
<path d="M23.291 21.2921L24.8867 19.7787L32.9216 28.199L35.7825 25.4781L37.1606 26.9191L32.704 31.1614L23.291 21.2921Z" fill="#003876"/>
<path d="M40.6085 21.115C41.1404 21.1714 42.2203 21.1553 43.2358 20.5676C44.0659 20.0846 44.5091 19.1347 43.8241 17.9514C43.3325 17.1061 42.6878 16.9854 41.4306 16.9451L40.1089 16.8968C38.7066 16.8485 37.4977 16.3092 36.6193 14.7877C35.3943 12.6786 36.2889 10.6903 38.0296 9.68406C39.1337 9.04811 40.0928 8.91931 40.4474 8.84686L41.4064 10.7064C40.8261 10.7708 40.0444 10.8191 39.166 11.3263C38.215 11.8736 38.0538 12.735 38.5293 13.548C39.037 14.4255 39.7543 14.4657 40.5521 14.4979L42.0753 14.5623C43.7435 14.6348 44.7589 15.0453 45.718 16.6956C47.1122 19.0945 46.274 21.115 44.2915 22.2581C43.2519 22.8619 42.3493 23.1597 41.624 23.1034L40.6085 21.115Z" fill="#003876"/>
<path d="M44.6719 6.43996L46.735 5.67522L48.6611 10.8674L51.9975 9.6358L50.0714 4.43552L52.1345 3.67078L56.8813 16.4461L54.8182 17.2108L52.7228 11.5758L49.3864 12.8075L51.4818 18.4505L49.4186 19.2153L44.6719 6.43996Z" fill="#003876"/>
<path d="M56.252 2.63233L58.3876 2.12518L61.4984 15.3915L59.3547 15.8987L56.252 2.63233Z" fill="#003876"/>
<path d="M66.0522 7.27711C67.4141 7.10002 67.9218 6.27087 67.7284 4.79772C67.5431 3.32458 66.85 2.66448 65.488 2.84158L64.666 2.94623L65.2301 7.38176L66.0522 7.27711ZM62.2402 1.32819L65.6492 0.893492C68.1072 0.579543 69.582 1.96414 69.9124 4.52403C70.2428 7.07587 69.1629 8.81466 66.7049 9.12861L65.48 9.28156L66.1569 14.5704L63.9729 14.8521L62.2483 1.33624L62.2402 1.32819Z" fill="#003876"/>
<path d="M72.7735 11.2297C73.2087 11.5356 74.1597 12.0508 75.3282 12.0347C76.2953 12.0186 77.1415 11.4068 77.1254 10.0383C77.1093 9.06423 76.6096 8.63758 75.5377 7.99359L74.4095 7.30934C73.2167 6.58484 72.427 5.52225 72.4028 3.7593C72.3705 1.32017 74.1274 0.0241207 76.1341 -2.91931e-05C77.4074 -0.0161291 78.302 0.346119 78.6485 0.450769L78.576 2.54376C78.036 2.31836 77.3268 1.97221 76.3195 1.98831C75.2154 2.00441 74.6593 2.67256 74.6754 3.61441C74.6916 4.6287 75.296 5.0151 75.9729 5.4337L77.2704 6.23869C78.6888 7.11614 79.3738 7.96944 79.398 9.87728C79.4383 12.6465 77.7137 13.9989 75.433 14.0311C74.2322 14.0472 73.2973 13.862 72.6929 13.4595L72.7816 11.2297" fill="#003876"/>
<path d="M85.2247 0.515187L84.2657 9.28965C84.0159 11.5436 84.5397 12.3406 85.8211 12.4855C87.0703 12.6223 87.7633 11.9542 88.0132 9.7002L88.9722 0.925735L91.1562 1.16723L90.1972 9.9417C89.8103 13.5159 87.8439 14.7153 85.6035 14.4658C83.347 14.2162 81.6868 12.6223 82.0817 9.0562L83.0407 0.281738L85.2328 0.523237" fill="#003876"/>
<path d="M96.6513 8.90324C97.9811 9.24939 98.7547 8.66174 99.1335 7.22885C99.5042 5.79596 99.1093 4.92656 97.7796 4.58041L96.9817 4.37111L95.8615 8.69394L96.6594 8.90324M95.3216 1.96417L98.65 2.82552C101.052 3.44537 101.906 5.28076 101.253 7.77625C100.608 10.2717 98.9562 11.4792 96.5627 10.8594L95.3619 10.5454L94.0241 15.7055L91.8965 15.15L95.3135 1.96417H95.3216Z" fill="#003876"/>
<path d="M106.049 12.0508C107.315 12.5901 108.169 12.1313 108.749 10.7628C109.329 9.40235 109.071 8.47661 107.806 7.93726L107.049 7.61526L105.284 11.7288L106.041 12.0508M105.783 4.99902L108.942 6.35142C111.223 7.32546 111.787 9.2655 110.772 11.6322C109.756 13.9989 107.951 14.9488 105.671 13.9747L104.534 13.4917L102.439 18.3942L100.416 17.5248L105.783 4.99902Z" fill="#003876"/>
<path d="M115.63 9.60358L117.5 10.7628L111.359 20.6481L114.719 22.7331L113.672 24.4236L108.441 21.1794L115.63 9.60358Z" fill="#003876"/>
<path d="M123.409 14.8119L125.125 16.1804L116.631 26.8385L114.906 25.47L123.409 14.8119Z" fill="#003876"/>
<path d="M128.365 18.9415L132.781 23.4495L131.355 24.8422L128.478 21.9039L125.883 24.4477L128.598 27.2169L127.172 28.6095L124.456 25.8403L121.579 28.6498L124.569 31.7088L123.142 33.0934L118.613 28.4646L128.365 18.9415Z" fill="#003876"/>
<path d="M132.426 32.6184C133.103 33.5683 134.119 33.8179 135.255 33.0209C136.528 32.1193 136.432 31.3063 135.714 30.292L135.199 29.5675L131.918 31.8939L132.434 32.6184M135.481 26.6614L137.648 29.7124C138.881 31.4512 138.825 33.2624 136.786 34.7033C135.336 35.7337 133.796 35.621 132.829 34.6631L132.781 34.6953C132.974 35.1058 133.071 35.6452 132.257 36.6917L128.929 40.9743L127.575 39.0664L130.508 35.5325C131.217 34.6711 131.177 34.011 130.71 33.351L130.42 32.9485L125.641 36.3375L124.367 34.5423L135.489 26.6534L135.481 26.6614Z" fill="#003876"/>
<path d="M132 41.1353C131.919 41.6586 131.879 42.7453 132.419 43.7838C132.862 44.6371 133.789 45.1281 135.006 44.5002C135.876 44.0494 136.029 43.4135 136.134 42.1657L136.247 40.8536C136.36 39.4609 136.964 38.2776 138.528 37.4806C140.695 36.3617 142.638 37.3518 143.565 39.1389C144.145 40.2659 144.225 41.2319 144.282 41.5942L142.372 42.4636C142.34 41.884 142.323 41.0951 141.864 40.1935C141.356 39.2194 140.51 39.0182 139.672 39.4448C138.769 39.9117 138.697 40.6201 138.624 41.4171L138.487 42.9385C138.334 44.6049 137.875 45.587 136.174 46.4644C133.708 47.7363 131.734 46.8025 130.686 44.7659C130.138 43.6952 129.88 42.7856 129.977 42.0611L132.016 41.1514" fill="#003876"/>
<path d="M148.084 54.5948C147.875 53.8864 147.15 53.492 146.287 53.7415C145.328 54.0233 144.821 54.8524 144.401 55.4401C145.078 55.9392 146.046 56.5349 147.134 56.2209C147.98 55.9714 148.294 55.3113 148.084 54.6029M142.072 55.5528C141.444 55.0537 140.63 54.6673 139.413 55.0215C137.987 55.4401 137.584 56.7039 137.801 57.4606C138.011 58.1851 138.615 58.652 139.292 58.8855L142.064 55.5528H142.072ZM138.204 60.2379C137.197 59.779 136.439 59.3524 136.012 57.8873C135.255 55.2952 136.713 53.5886 138.72 53.0009C141.009 52.3328 142.483 53.4276 143.112 54.0474C143.749 53.2344 144.313 52.373 145.667 51.9786C146.884 51.6244 148.898 51.9545 149.567 54.2648C150.188 56.39 148.882 57.6297 147.569 58.0161C145.804 58.5313 144.345 57.5089 143.499 56.8971L141.347 59.4892C142.355 59.7307 143.571 59.5214 144.514 59.2477L145.054 61.0912C143.7 61.4856 141.621 61.6788 140.001 61.0751L137.906 63.651L137.253 61.4051L138.212 60.2298L138.204 60.2379Z" fill="#003876"/>
<path d="M141.606 69.4792C141.348 69.9461 140.945 70.9524 141.098 72.1116C141.219 73.0695 141.928 73.8423 143.29 73.6652C144.257 73.5445 144.62 72.989 145.144 71.854L145.7 70.6545C146.288 69.3826 147.255 68.481 148.996 68.2556C151.422 67.9417 152.905 69.5356 153.162 71.532C153.324 72.7958 153.074 73.7296 153.001 74.0838L150.914 74.2448C151.075 73.6894 151.341 72.9407 151.204 71.9425C151.067 70.8558 150.334 70.3728 149.399 70.4935C148.391 70.6223 148.077 71.2663 147.739 71.9908L147.086 73.3754C146.377 74.8888 145.603 75.6616 143.709 75.9031C140.953 76.2573 139.414 74.7037 139.124 72.4416C138.97 71.2502 139.043 70.3084 139.373 69.6563L141.598 69.4873" fill="#003876"/>
<path d="M153.638 77.988L153.944 84.2912L151.953 84.3878L151.752 80.2823L148.125 80.4594L148.311 84.3395L146.32 84.4361L146.135 80.564L142.113 80.7572L142.323 85.0318L140.332 85.1284L140.01 78.6562L153.638 77.988Z" fill="#003876"/>
<path d="M147.957 90.7392C147.924 91.9064 148.577 92.7195 149.963 92.7597C151.527 92.808 151.938 92.0996 151.978 90.868L152.01 89.9744L147.989 89.8456L147.965 90.7392M154.001 87.8412L153.88 91.5844C153.808 93.7096 152.671 95.1184 150.173 95.0379C148.392 94.9815 147.239 93.9672 147.046 92.6148H146.99C146.901 93.0576 146.651 93.5486 145.362 93.8867L140.115 95.2874L140.188 92.9529L144.661 91.9145C145.74 91.6569 146.111 91.1014 146.135 90.2964L146.151 89.7973L140.293 89.6122L140.365 87.4146L154.001 87.8492V87.8412Z" fill="#003876"/>
<path d="M153.645 97.2677L153.363 99.6183L142.636 100.761L142.628 100.794L152.767 104.529L152.493 106.783L139.389 101.51L139.671 99.2077L153.645 97.2677Z" fill="#003876"/>
<path d="M151.961 109.31L151.542 111.468L138.156 108.868L138.575 106.71L151.961 109.31Z" fill="#003876"/>
<path d="M135.907 119.003C135.762 118.503 135.834 117.417 136.116 116.37C137.067 112.852 140.484 111.838 144.329 112.877C148.181 113.915 150.615 116.515 149.68 119.961C149.357 121.136 148.745 122.005 148.439 122.384L146.303 121.683C146.666 121.321 147.318 120.766 147.609 119.687C148.084 117.932 147.133 116.056 143.724 115.131C140.307 114.205 138.542 115.348 138.067 117.111C137.793 118.141 137.889 118.898 138.155 119.486L135.915 119.003" fill="#003876"/>
<path d="M147.73 125.636L145.514 131.536L143.644 130.836L145.087 126.996L141.686 125.716L140.316 129.355L138.454 128.655L139.816 125.016L136.044 123.607L134.545 127.608L132.676 126.916L134.956 120.846L147.73 125.636Z" fill="#003876"/>
<path d="M134.223 129.959C133.755 130.208 132.861 130.82 132.345 131.875C131.918 132.736 132.087 133.774 133.32 134.378C134.199 134.805 134.803 134.547 135.867 133.887L136.987 133.195C138.18 132.454 139.485 132.237 141.065 133.01C143.257 134.08 143.62 136.23 142.733 138.033C142.177 139.176 141.444 139.812 141.194 140.069L139.364 139.055C139.808 138.677 140.436 138.202 140.879 137.292C141.363 136.302 141.016 135.505 140.17 135.095C139.26 134.644 138.639 135.014 137.962 135.425L136.657 136.222C135.23 137.091 134.158 137.316 132.442 136.471C129.951 135.247 129.516 133.106 130.524 131.061C131.055 129.983 131.636 129.234 132.272 128.872L134.223 129.959Z" fill="#003876"/>
<path d="M96.0161 29.2455L103.269 29.7205L104.228 30.944L102.383 65.4462C99.2397 64.77 94.9926 67.0723 93.7676 63.2808C94.1786 56.5027 94.8395 48.3722 95.0006 41.3205C95.0329 39.7185 95.9597 37.6577 94.3882 36.7803C92.3734 37.215 93.2196 39.4448 92.9537 41.1836C92.3412 50.264 91.2451 59.6905 90.3586 68.634L91.7287 69.7207L100.964 70.1232C101.101 70.6626 102.471 70.735 101.786 71.5481L101.923 71.6849V77.175L99.9408 119.534C99.0543 123.672 94.1947 120.146 91.4627 120.758L77.166 118.793L80.8571 81.5864L81.2681 80.8377C84.0726 80.8377 87.4252 80.7009 89.7462 82.0613C88.9967 91.7535 88.1021 101.582 87.6266 111.202C88.3117 111.54 89.3352 111.951 90.0927 111.339L92.5507 78.5354L92.2122 77.7868C88.8597 77.3118 84.8221 77.5855 81.6146 76.4344C82.0256 76.0239 81.1391 75.6858 81.4776 75.3477C82.8476 59.4892 84.2096 45.12 86.0632 30.2115C85.9262 29.8734 86.724 29.3019 87.1592 29.2616H93.3163C94.0658 27.1606 93.6548 24.5202 94.2028 22.2823L96.0483 22.4191V29.2616" fill="#BC9308"/>
<path d="M75.0868 36.5629H82.3399L78.6489 71.0651C76.8033 71.8781 74.3373 71.3388 72.2178 71.54C71.7423 70.7914 70.7107 71.2663 70.5092 70.3164C71.2587 61.7754 72.7013 53.2344 73.4508 44.4921C72.9753 44.2184 72.2178 43.7515 71.7423 44.3553L71.2668 44.8302L67.3017 74.5829C67.5758 74.921 67.6402 75.5328 68.1882 75.5972C71.4038 76.0722 74.5468 75.3235 77.5609 76.209C78.2459 76.8208 78.4474 77.7707 78.1734 78.5113L77.7624 83.1239L73.7248 121.216C73.5233 121.828 72.9028 121.965 72.4918 122.303C65.8592 121.353 59.2266 120.403 52.5215 119.727C54.0285 107.934 56.0755 96.2051 57.7196 85.3618C60.0486 85.4987 62.7806 85.5631 65.1097 86.1749C65.3837 87.3985 65.9317 88.0022 65.5852 89.3627L62.6436 111.597C63.3286 112.208 64.4247 111.798 65.2386 112.072C66.6087 102.854 68.1077 92.8885 68.7927 83.5345L68.3172 83.1239L58.058 82.0372C59.0815 73.0212 60.9271 64.5527 61.7491 55.8104C61.8861 55.2711 62.2971 54.2487 62.1601 53.5081C62.3696 52.0833 62.4986 51.4715 62.6356 49.8454C63.4576 45.9814 64.1426 40.9663 64.8276 36.4261L72.4918 36.1524C72.9028 33.9869 72.8302 31.411 73.7248 29.5756H74.8208L75.0948 36.5549" fill="#BC9308"/>
<path d="M49.2324 121.965C45.7428 122.166 42.2533 121.152 38.6348 121.088L52.6575 43.4859H59.0886L60.5231 36.571H62.3686L49.2404 121.973" fill="#BC9308"/>
<path d="M112.505 96.68L112.368 77.022L112.843 76.4102L113.254 76.8127L115.446 95.7221C114.56 96.2614 113.601 96.5995 112.505 96.672M132.338 109.021C131.178 108.143 129.26 108.884 127.89 108.409V108.135L120.225 63.6027C120.113 62.7736 119.694 62.4757 119.613 62.3791C119.202 61.5661 118.453 61.7673 117.768 61.7673C114.415 63.5947 111.336 66.1063 107.919 67.668L107.307 67.3943L107.444 45.2971C107.516 43.8079 105.461 44.7578 105.598 45.7077L103.616 89.3546C103.14 99.7229 102.52 109.415 102.383 119.381C102.931 119.993 103.817 119.856 104.639 119.856C106.831 119.325 109.354 119.244 110.998 117.28C111.618 116.805 111.546 115.855 111.747 115.114C111.409 112.683 112.046 109.979 111.61 107.523L112.223 106.099C113.416 105.205 115.1 104.674 116.671 104.875L118.179 113.617L118.622 114.301L131.927 109.753C132.064 109.552 132.54 109.415 132.338 109.005V109.021Z" fill="#BC9308"/>
<path d="M49.2332 124.742C66.1249 126.03 83.1536 124.541 99.2959 123.044C105.864 122.432 112.223 120.943 117.896 118.504C118.033 118.302 118.372 118.165 118.372 117.892C119.395 118.23 118.847 119.582 119.121 120.468C118.847 123.72 117.477 126.433 114.946 129.009C94.9762 135.513 74.5224 139.24 52.6341 141.679C48.7335 141.953 44.3574 141.615 42.1654 138.427C41.8269 137.888 41.6899 137.139 41.0694 136.801V136.326L33.8162 125.483L32.9297 124.871L33.0667 124.734C29.6497 122.569 26.0876 120.733 22.3241 119.107C21.0266 117.819 18.085 117.481 18.1495 115.581C28.6826 118.632 37.5073 124.396 49.2009 124.734" fill="#BC9308"/>
</g>
<defs>
<clipPath id="clip0_570_1736">
<rect width="154" height="174" fill="white"/>
</clipPath>
</defs>
</svg>
