<svg width="269" height="142" viewBox="0 0 269 142" fill="none" xmlns="http://www.w3.org/2000/svg">
<g clip-path="url(#clip0_570_1792)">
<mask id="mask0_570_1792" style="mask-type:luminance" maskUnits="userSpaceOnUse" x="0" y="0" width="269" height="142">
<path d="M268.773 0.0986938H0.0273438V141.972H268.773V0.0986938Z" fill="white"/>
</mask>
<g mask="url(#mask0_570_1792)">
<path fill-rule="evenodd" clip-rule="evenodd" d="M28.125 126.198C47.3413 112.201 109.828 168.078 154.39 126.024C129.195 149.8 64.2492 99.8901 28.125 126.198Z" fill="#A7A9AC"/>
<path d="M18.585 18.4378C18.373 22.817 18.373 29.2166 18.373 38.3087C18.373 49.7594 18.373 55.4872 19.3388 60.8766H0C0.965762 55.4872 0.965762 49.7641 0.965762 43.6981V35.6163C0.965762 29.5502 0.965762 23.8272 0 18.4378H18.585ZM9.75655 0C15.1224 0 19.4189 3.36428 19.4189 7.56494C19.4189 11.7656 15.1224 15.1299 9.75655 15.1299C4.39068 15.1299 0.0942207 11.7703 0.0942207 7.56494C0.0942207 3.35958 4.38597 0 9.75655 0Z" fill="#003768"/>
<path d="M43.586 18.4378C44.3397 19.7017 44.8768 21.1348 45.1971 22.1733C49.1356 19.3211 53.9078 17.3947 59.2549 17.3947C65.0589 17.3947 68.7099 19.993 71.2868 22.7606C75.1358 20.0776 79.3757 17.3947 86.3103 17.3947C96.8395 17.3947 100.816 23.1788 100.816 31.5143V43.6652C100.816 49.7406 100.816 55.4778 101.781 60.8766H82.4567C83.413 55.4778 83.413 49.7406 83.413 43.6652V31.9372C83.413 28.9817 82.3531 26.7921 79.0648 26.7921C75.4561 26.7921 73.4445 28.9864 73.4445 31.9372V43.6652C73.4445 49.7406 73.4445 55.4778 74.4008 60.8766H55.0856C56.0419 55.4778 56.0419 49.7406 56.0419 43.6652V31.768C56.0419 28.9817 54.982 26.7874 51.6937 26.7874C48.721 26.7874 46.0734 28.728 46.0734 31.2606V43.6981C46.0734 49.7594 46.0734 55.4872 47.0297 60.8766H27.7051C28.6708 55.4872 28.6708 49.7641 28.6708 43.6981V35.6163C28.6708 29.5549 28.6708 23.8272 27.7051 18.4378H43.6048" fill="#003768"/>
<path d="M18.3957 81.5745C18.3957 79.117 19.7807 77.2516 23.2998 77.2516C28.416 77.2516 30.4418 82.2511 30.4418 88.8575C30.4418 97.9213 26.6023 103.513 21.4861 103.513C19.352 103.513 18.3957 102.667 18.3957 100.717V81.5698M0.0273438 68.3852C0.993106 73.7417 0.993106 79.4506 0.993106 85.5261V109.654C0.993106 115.715 0.993106 121.438 0.0273438 126.828H19.0364C18.3957 124.305 18.3957 117.825 18.3957 112.774V111.176C19.8891 111.623 21.7028 111.872 23.4082 111.872C36.9666 111.872 48.4049 101.159 48.4049 86.6209C48.4049 74.6204 39.7461 67.3514 29.8058 67.3514C24.5812 67.3514 20.7418 69.2121 17.8586 71.0728L16.6761 68.3946H0.0273438V68.3852Z" fill="#003768"/>
</g>
<mask id="mask1_570_1792" style="mask-type:luminance" maskUnits="userSpaceOnUse" x="0" y="0" width="269" height="142">
<path d="M269 0.0986938H0V142H269V0.0986938Z" fill="white"/>
</mask>
<g mask="url(#mask1_570_1792)">
<path d="M82.2602 101.135C81.6101 101.896 79.3488 102.996 77.0828 102.996C73.6296 102.996 71.26 100.712 71.26 97.7522C71.26 93.5234 75.4669 90.2249 82.2602 88.8716V101.135ZM58.9029 79.7373C64.3819 76.6127 69.7525 75.344 73.2009 75.344C78.27 75.344 80.7527 77.8813 80.8611 80.8368L71.9101 83.1157C61.7013 85.7329 53.8574 90.972 53.8574 98.7436C53.8574 105.858 60.6272 111.519 71.048 111.519C76.2254 111.519 80.2157 109.913 83.1224 108.221C83.2307 108.54 83.6594 109.471 84.9408 110.824H101.966C99.1776 104.575 99.1776 100.012 99.1776 95.9573V85.3993C99.1776 74.0942 92.4314 67.3468 70.1859 67.3468C66.2098 67.3468 60.4105 67.8449 58.9029 68.014V79.742V79.7373Z" fill="#003768"/>
<path d="M123.486 32.9897C123.486 34.4087 123.594 35.1136 123.651 35.4707H120.23C120.282 35.1183 120.395 34.4087 120.395 32.9897V21.7692C120.395 20.3502 120.287 19.6454 120.23 19.2883H123.651C123.594 19.6407 123.486 20.3502 123.486 21.7692V32.9897Z" fill="#003768"/>
<path d="M138.345 32.9897C138.345 33.8637 138.345 34.7142 138.51 35.4706H135.334C135.499 34.7142 135.499 33.8637 135.499 32.9897V27.3231C135.499 26.4491 135.254 25.6691 134.199 25.6691C132.894 25.6691 131.184 27.013 130.751 27.417V32.9897C130.751 33.8637 130.751 34.7142 130.915 35.4706H127.74C127.905 34.7142 127.905 33.8637 127.905 32.9897V26.092C127.905 25.6174 127.905 24.5555 127.74 23.6111H130.751V25.1711C131.349 24.6965 133.384 23.3057 135.419 23.3057C138.241 23.3057 138.349 25.1241 138.349 27.3184V32.985" fill="#003768"/>
<path d="M150.18 34.0047C149.582 34.4323 147.575 35.7761 145.813 35.7761C143.505 35.7761 143.151 34.3336 143.151 32.5622V25.3825H140.951V23.6111H143.151L143.613 20.6133L146.001 20.2139V23.6158H147.792C148.442 23.6158 149.148 23.6158 149.69 23.4748V25.5282C149.148 25.3872 148.385 25.3872 147.792 25.3872H146.001V32.5669C146.001 33.1589 146.218 33.6523 146.816 33.6523C147.603 33.6523 148.852 32.6843 149.153 32.4729L150.185 34.0094" fill="#003768"/>
<path d="M163.159 33.5771C162.212 34.2396 160.064 35.7761 157.298 35.7761C153.958 35.7761 152.088 33.4126 152.088 29.5409C152.088 25.453 154.637 23.3057 157.788 23.3057C161.369 23.3057 163.05 25.951 163.05 28.4085V29.9919C162.754 29.9684 161.044 29.8745 158.9 29.8745C156.757 29.8745 155.452 29.9684 155.075 29.9919C155.075 30.7484 155.075 33.6522 158.033 33.6522C159.607 33.6522 161.425 32.5199 161.939 32.1627L163.159 33.5818M157.784 25.1945C155.452 25.1945 155.127 27.652 155.07 28.2628C155.395 28.2393 156.427 28.2158 157.784 28.2158C159.14 28.2158 159.819 28.2393 160.2 28.2628C160.2 27.4358 159.927 25.1945 157.784 25.1945Z" fill="#003768"/>
<path d="M169.495 32.9897C169.495 33.8637 169.495 34.7142 169.66 35.4706H166.484C166.649 34.7142 166.649 33.8637 166.649 32.9897V26.092C166.649 25.6174 166.649 24.5555 166.484 23.6111H169.495V25.3825H169.547C170.305 24.532 171.61 23.3761 173.32 23.3057V25.7866C173.16 25.7631 172.995 25.7631 172.83 25.7631C171.257 25.7631 169.952 27.3466 169.495 27.8634V32.9897Z" fill="#003768"/>
<path d="M186.719 32.9897C186.719 33.8637 186.719 34.7142 186.884 35.4706H183.708C183.873 34.7142 183.873 33.8637 183.873 32.9897V27.3231C183.873 26.4491 183.628 25.6691 182.568 25.6691C181.268 25.6691 179.558 27.013 179.12 27.417V32.9897C179.12 33.8637 179.12 34.7142 179.285 35.4706H176.109C176.27 34.7142 176.27 33.8637 176.27 32.9897V26.092C176.27 25.6174 176.27 24.5555 176.109 23.6111H179.12V25.1711C179.718 24.6965 181.753 23.3057 183.788 23.3057C186.61 23.3057 186.719 25.1241 186.719 27.3184V32.985" fill="#003768"/>
<path d="M200.781 32.9897C200.781 33.4643 200.781 34.5262 200.946 35.4706H197.936V33.7697C197.285 34.2631 195.604 35.7761 193.295 35.7761C191.18 35.7761 189.875 34.2866 189.875 32.2332C189.875 28.432 196.254 27.8869 197.936 27.7929V26.9425C197.936 25.8806 197.611 25.312 196.334 25.312C194.355 25.312 192.344 26.1625 191.557 26.6089L190.582 24.9549C191.505 24.4803 194.054 23.301 196.796 23.301C200.131 23.301 200.786 24.7905 200.786 26.9378V32.985M197.931 29.4234C196.819 29.4939 192.72 29.7993 192.72 32.2332C192.72 33.2716 193.21 33.7697 194.214 33.7697C195.707 33.7697 197.634 32.1393 197.931 31.8573V29.4234Z" fill="#003768"/>
<path d="M212.75 34.0047C212.152 34.4323 210.145 35.7761 208.383 35.7761C206.075 35.7761 205.722 34.3336 205.722 32.5622V25.3825H203.521V23.6111H205.722L206.183 20.6133L208.572 20.2139V23.6158H210.362C211.012 23.6158 211.719 23.6158 212.26 23.4748V25.5282C211.719 25.3872 210.955 25.3872 210.362 25.3872H208.572V32.5669C208.572 33.1589 208.788 33.6523 209.387 33.6523C210.173 33.6523 211.422 32.6843 211.723 32.4729L212.755 34.0094" fill="#003768"/>
<path d="M218.352 32.9897C218.352 33.8637 218.352 34.7142 218.517 35.4707H215.342C215.507 34.7142 215.507 33.8637 215.507 32.9897V26.092C215.507 25.2181 215.507 24.3676 215.342 23.6111H218.517C218.352 24.3676 218.352 25.2181 218.352 26.092V32.9897ZM215.502 18.1794H218.352V20.7778H215.502V18.1794Z" fill="#003768"/>
<path d="M227.694 35.7761C224.166 35.7761 221.777 33.6757 221.777 29.5409C221.777 25.406 224.981 23.3057 227.694 23.3057C231.223 23.3057 233.611 25.406 233.611 29.5409C233.611 33.6757 230.408 35.7761 227.694 35.7761ZM224.764 29.5409C224.764 31.9043 225.659 33.7697 227.694 33.7697C229.73 33.7697 230.625 31.9043 230.625 29.5409C230.625 27.1774 229.73 25.312 227.694 25.312C225.659 25.312 224.764 27.1774 224.764 29.5409Z" fill="#003768"/>
<path d="M247.457 32.9897C247.457 33.8637 247.457 34.7142 247.622 35.4706H244.447C244.611 34.7142 244.611 33.8637 244.611 32.9897V27.3231C244.611 26.4491 244.366 25.6691 243.306 25.6691C242.006 25.6691 240.296 27.013 239.858 27.417V32.9897C239.858 33.8637 239.858 34.7142 240.023 35.4706H236.848C237.008 34.7142 237.008 33.8637 237.008 32.9897V26.092C237.008 25.6174 237.008 24.5555 236.848 23.6111H239.858V25.1711C240.456 24.6965 242.491 23.3057 244.527 23.3057C247.349 23.3057 247.457 25.1241 247.457 27.3184V32.985" fill="#003768"/>
<path d="M261.515 32.9897C261.515 33.4643 261.515 34.5262 261.68 35.4706H258.67V33.7697C258.02 34.2631 256.338 35.7761 254.03 35.7761C251.914 35.7761 250.609 34.2866 250.609 32.2332C250.609 28.432 256.988 27.8869 258.67 27.7929V26.9425C258.67 25.8806 258.345 25.312 257.068 25.312C255.085 25.312 253.078 26.1625 252.291 26.6089L251.316 24.9549C252.239 24.4803 254.788 23.301 257.53 23.301C260.87 23.301 261.52 24.7905 261.52 26.9378V32.985M258.665 29.4234C257.553 29.4939 253.455 29.7993 253.455 32.2332C253.455 33.2716 253.945 33.7697 254.948 33.7697C256.442 33.7697 258.368 32.1393 258.665 31.8573V29.4234Z" fill="#003768"/>
<path d="M268.61 32.9897C268.61 33.8637 268.61 34.7142 268.775 35.4707H265.6C265.76 34.7142 265.76 33.8637 265.76 32.9897V20.6603C265.76 19.7863 265.76 18.9359 265.6 18.1794H268.775C268.61 18.9359 268.61 19.7863 268.61 20.6603V32.9897Z" fill="#003768"/>
<path d="M137.573 57.5922C137.625 58.6306 137.71 60.0262 137.87 60.4256H134.615C134.666 60.0966 134.666 59.763 134.666 59.4341C134.666 59.0817 134.586 58.1843 134.586 57.5922L134.181 47.3161H134.125L129.729 60.4256H127.124L122.644 47.3161H122.592L122.13 57.5922C122.079 58.1843 122.05 59.0817 122.05 59.4341C122.05 59.763 122.13 60.0966 122.159 60.4256H119.172C119.389 60.0027 119.469 58.5602 119.553 57.5922L120.288 45.1923C120.288 44.9809 120.288 44.6942 120.18 44.2479H124.114L128.537 57.4748H128.594L132.989 44.2479H136.923C136.815 44.5768 136.815 44.8869 136.815 45.1923L137.573 57.5922Z" fill="#003768"/>
<path d="M151.711 57.9446C151.711 58.4192 151.711 59.4811 151.876 60.4255H148.865V58.7246C148.215 59.218 146.533 60.731 144.225 60.731C142.11 60.731 140.805 59.2415 140.805 57.1881C140.805 53.3869 147.183 52.8418 148.865 52.7478V51.8974C148.865 50.8355 148.54 50.2669 147.264 50.2669C145.28 50.2669 143.273 51.1174 142.487 51.5638L141.511 49.9098C142.435 49.4352 144.983 48.2559 147.725 48.2559C151.065 48.2559 151.715 49.7454 151.715 51.8927V57.9399M148.865 54.3783C147.753 54.4488 143.655 54.7542 143.655 57.1881C143.655 58.2265 144.145 58.7246 145.148 58.7246C146.642 58.7246 148.568 57.0942 148.865 56.8122V54.3783Z" fill="#003768"/>
<path d="M158.805 57.9446C158.805 58.8186 158.805 59.6691 158.97 60.4255H155.795C155.96 59.6691 155.96 58.8186 155.96 57.9446V51.0469C155.96 50.5723 155.96 49.5104 155.795 48.566H158.805V50.3374H158.862C159.62 49.4869 160.925 48.331 162.635 48.2606V50.7415C162.47 50.718 162.31 50.718 162.145 50.718C160.572 50.718 159.267 52.3015 158.805 52.8183V57.9446Z" fill="#003768"/>
<path d="M168.524 57.9446C168.524 58.8186 168.524 59.6691 168.689 60.4256H165.514C165.679 59.6691 165.679 58.8186 165.679 57.9446V51.0469C165.679 50.173 165.679 49.3225 165.514 48.566H168.689C168.524 49.3225 168.524 50.173 168.524 51.0469V57.9446ZM165.674 43.139H168.524V45.7374H165.674V43.139Z" fill="#003768"/>
<path d="M183.204 57.9446C183.204 58.8186 183.204 59.6691 183.369 60.4255H180.194C180.359 59.6691 180.359 58.8186 180.359 57.9446V52.278C180.359 51.404 180.114 50.624 179.058 50.624C177.753 50.624 176.048 51.9678 175.61 52.3719V57.9446C175.61 58.8186 175.61 59.6691 175.775 60.4255H172.6C172.76 59.6691 172.76 58.8186 172.76 57.9446V51.0469C172.76 50.5723 172.76 49.5104 172.6 48.566H175.61V50.126C176.208 49.6514 178.243 48.2606 180.279 48.2606C183.101 48.2606 183.209 50.079 183.209 52.278V57.9446" fill="#003768"/>
<path d="M197.7 58.5367C196.753 59.1992 194.605 60.7357 191.839 60.7357C188.504 60.7357 186.629 58.3722 186.629 54.5005C186.629 50.4126 189.178 48.2653 192.329 48.2653C195.91 48.2653 197.591 50.9106 197.591 53.3681V54.9515C197.295 54.928 195.585 54.8341 193.441 54.8341C191.298 54.8341 189.997 54.928 189.616 54.9515C189.616 55.708 189.616 58.6118 192.574 58.6118C194.148 58.6118 195.966 57.4794 196.48 57.1223L197.7 58.5414M192.329 50.1541C189.997 50.1541 189.668 52.6116 189.616 53.2224C189.941 53.1989 190.972 53.1754 192.329 53.1754C193.686 53.1754 194.364 53.1989 194.741 53.2224C194.741 52.3954 194.473 50.1541 192.329 50.1541Z" fill="#003768"/>
<path d="M123.349 82.9042C123.349 84.3185 123.457 85.028 123.514 85.3852H120.094C120.146 85.0327 120.259 84.3232 120.259 82.9042V71.6837C120.259 70.2647 120.15 69.5599 120.094 69.2028H125.601C128.451 69.2028 131.49 69.8888 131.49 73.5256C131.49 77.4208 128.315 78.2243 124.786 78.2243H123.349V82.8995M124.786 76.3401C126.873 76.3401 128.503 75.7951 128.503 73.5303C128.503 71.4065 126.684 71.0963 124.786 71.0963H123.349V76.3401H124.786Z" fill="#003768"/>
<path d="M144.818 82.9042C144.818 83.3741 144.818 84.4407 144.983 85.3851H141.973V83.8252C141.374 84.2997 139.339 85.6906 137.304 85.6906C134.482 85.6906 134.374 83.8722 134.374 81.6779V76.0112C134.374 75.1372 134.374 74.2868 134.209 73.5303H137.384C137.219 74.2868 137.219 75.1372 137.219 76.0112V81.6779C137.219 82.5518 137.464 83.3318 138.524 83.3318C139.825 83.3318 141.535 81.988 141.973 81.5839V76.0112C141.973 75.1372 141.973 74.2868 141.808 73.5303H144.983C144.818 74.2868 144.818 75.1372 144.818 76.0112V82.9089" fill="#003768"/>
<path d="M151.913 82.9043C151.913 83.7782 151.913 84.6287 152.078 85.3852H148.902C149.067 84.6287 149.067 83.7782 149.067 82.9043V76.0066C149.067 75.532 149.067 74.4701 148.902 73.5256H151.913V75.297H151.965C152.723 74.4466 154.028 73.2907 155.738 73.2202V75.7011C155.573 75.6776 155.413 75.6776 155.248 75.6776C153.675 75.6776 152.37 77.2611 151.913 77.778V82.9043Z" fill="#003768"/>
<path d="M168.551 83.7547C167.925 84.1541 165.781 85.6906 162.988 85.6906C159.732 85.6906 157.857 83.2802 157.857 79.3849C157.857 75.1326 160.218 73.2202 164.019 73.2202C165.918 73.2202 167.223 73.6243 167.656 73.8123L167.03 75.7481C166.705 75.6307 165.376 75.1091 164.019 75.1091C161.711 75.1091 160.844 76.7865 160.844 79.3849C160.844 81.9833 161.551 83.6843 163.723 83.6843C165.296 83.6843 167.086 82.4344 167.388 82.2183L168.556 83.7547" fill="#003768"/>
<path d="M181.588 82.9042C181.588 83.7782 181.588 84.6287 181.753 85.3852H178.578C178.743 84.6287 178.743 83.7782 178.743 82.9042V77.2376C178.743 76.3636 178.498 75.5836 177.442 75.5836C176.137 75.5836 174.432 76.9275 173.994 77.3316L174.022 82.9042C174.022 83.7782 174.022 84.6287 174.187 85.3852H171.012C171.177 84.6287 171.177 83.7782 171.177 82.9042L171.148 70.5748C171.148 69.7008 171.148 68.8504 170.988 68.0939H174.164C173.999 68.8504 173.999 69.7008 173.999 70.5748V75.0856C174.597 74.611 176.632 73.2202 178.667 73.2202C181.489 73.2202 181.598 75.0386 181.598 77.2376V82.9042" fill="#003768"/>
<path d="M195.646 82.9043C195.646 83.3741 195.646 84.4408 195.811 85.3852H192.801V83.6843C192.151 84.1823 190.469 85.6906 188.16 85.6906C186.045 85.6906 184.74 84.2011 184.74 82.1478C184.74 78.3465 191.119 77.8015 192.801 77.7075V76.857C192.801 75.7951 192.476 75.2266 191.199 75.2266C189.216 75.2266 187.209 76.077 186.422 76.5281L185.447 74.8742C186.37 74.3996 188.919 73.2202 191.661 73.2202C194.996 73.2202 195.651 74.7097 195.651 76.857V82.9043M192.796 79.3379C191.684 79.4084 187.586 79.7138 187.586 82.1478C187.586 83.1862 188.076 83.6843 189.079 83.6843C190.572 83.6843 192.499 82.0538 192.796 81.7719V79.3379Z" fill="#003768"/>
<path d="M206.882 75.6071C206.5 75.4896 205.445 75.109 204.088 75.109C202.896 75.109 202.025 75.6071 202.025 76.3824C202.025 78.4827 208.187 77.6322 208.187 82.096C208.187 83.9144 206.26 85.6859 202.948 85.6859C200.588 85.6859 199.311 85.2113 198.77 85.0233L199.448 83.017C199.938 83.2284 200.993 83.6795 202.84 83.6795C204.06 83.6795 205.2 83.1814 205.2 82.096C205.2 79.6386 199.043 80.7522 199.043 76.3824C199.043 74.47 201.323 73.2155 203.872 73.2155C205.878 73.2155 206.882 73.5209 207.428 73.7135L206.887 75.6024" fill="#003768"/>
<path d="M214.188 82.9042C214.188 83.7782 214.188 84.6287 214.353 85.3852H211.178C211.343 84.6287 211.343 83.7782 211.343 82.9042V76.0065C211.343 75.1326 211.343 74.2821 211.178 73.5256H214.353C214.188 74.2821 214.188 75.1326 214.188 76.0065V82.9042ZM211.338 68.0939H214.188V70.6923H211.338V68.0939Z" fill="#003768"/>
<path d="M228.867 82.9043C228.867 83.7782 228.867 84.6287 229.032 85.3852H225.857C226.022 84.6287 226.022 83.7782 226.022 82.9043V77.2376C226.022 76.3637 225.777 75.5837 224.717 75.5837C223.412 75.5837 221.706 76.9275 221.268 77.3316V82.9043C221.268 83.7782 221.268 84.6287 221.433 85.3852H218.258C218.423 84.6287 218.423 83.7782 218.423 82.9043V76.0066C218.423 75.532 218.423 74.4701 218.258 73.5256H221.268V75.0856C221.866 74.611 223.902 73.2202 225.937 73.2202C228.759 73.2202 228.867 75.0386 228.867 77.2376V82.9043Z" fill="#003768"/>
<path d="M243.656 85.3852C243.656 88.4582 242.813 90.6055 237.739 90.6055C236 90.6055 233.424 89.9664 232.693 89.708L233.4 87.8191C233.81 87.9601 235.383 88.5991 237.744 88.5991C240.457 88.5991 240.81 87.1096 240.81 85.3852V83.9662C240.485 84.2716 238.912 85.6906 236.603 85.6906C233.537 85.6906 232.236 83.3741 232.236 79.6669C232.236 75.7246 234.135 73.2202 237.282 73.2202C239.505 73.2202 240.377 74.2116 240.81 74.6392V73.5303H243.825C243.661 74.4748 243.661 75.5367 243.661 76.0113V85.3899M240.806 76.6456C240.401 76.2462 239.529 75.2266 237.767 75.2266C235.812 75.2266 235.214 77.1155 235.214 79.6669C235.214 81.8847 235.732 83.4446 237.357 83.4446C238.983 83.4446 240.424 82.2418 240.801 81.7202V76.6409L240.806 76.6456Z" fill="#003768"/>
<path d="M134.694 107.981C135.184 109.114 135.67 109.894 135.971 110.345H132.169C132.061 109.847 131.764 108.879 131.439 107.981L130.652 105.951C130.379 105.951 128.806 105.834 127.204 105.834C125.522 105.834 123.92 105.951 123.567 105.951L122.752 107.981C122.37 108.855 122.102 109.941 121.993 110.345H118.465C118.79 109.823 119.28 109.043 119.77 107.981L124.655 96.9534C124.952 96.2439 125.522 94.8296 125.715 94.1671H128.702L134.699 107.981M127.26 96.9487H127.204L124.382 103.94C124.65 103.917 126.012 103.823 127.152 103.823C128.292 103.823 129.677 103.917 129.894 103.94L127.26 96.9487Z" fill="#003768"/>
<path d="M146.226 100.562C145.844 100.445 144.789 100.064 143.432 100.064C142.24 100.064 141.369 100.562 141.369 101.342C141.369 103.442 147.531 102.592 147.531 107.056C147.531 108.874 145.604 110.645 142.292 110.645C139.932 110.645 138.655 110.171 138.113 109.983L138.792 107.977C139.282 108.188 140.337 108.639 142.184 108.639C143.404 108.639 144.544 108.141 144.544 107.056C144.544 104.598 138.382 105.712 138.382 101.342C138.382 99.4296 140.662 98.175 143.211 98.175C145.218 98.175 146.221 98.4805 146.767 98.6731L146.226 100.562Z" fill="#003768"/>
<path d="M157.642 100.562C157.26 100.445 156.205 100.064 154.848 100.064C153.656 100.064 152.785 100.562 152.785 101.342C152.785 103.442 158.947 102.592 158.947 107.056C158.947 108.874 157.02 110.645 153.708 110.645C151.348 110.645 150.071 110.171 149.529 109.983L150.208 107.977C150.698 108.188 151.753 108.639 153.6 108.639C154.82 108.639 155.96 108.141 155.96 107.056C155.96 104.598 149.798 105.712 149.798 101.342C149.798 99.4296 152.078 98.175 154.627 98.175C156.634 98.175 157.637 98.4805 158.183 98.6731L157.642 100.562Z" fill="#003768"/>
<path d="M167.323 110.65C163.795 110.65 161.406 108.55 161.406 104.415C161.406 100.28 164.61 98.1798 167.323 98.1798C170.852 98.1798 173.24 100.28 173.24 104.415C173.24 108.55 170.037 110.65 167.323 110.65ZM164.393 104.415C164.393 106.778 165.288 108.644 167.323 108.644C169.358 108.644 170.254 106.778 170.254 104.415C170.254 102.052 169.358 100.186 167.323 100.186C165.288 100.186 164.393 102.052 164.393 104.415Z" fill="#003768"/>
<path d="M186.671 108.714C186.044 109.114 183.901 110.65 181.107 110.65C177.852 110.65 175.977 108.24 175.977 104.345C175.977 100.092 178.337 98.1798 182.139 98.1798C184.037 98.1798 185.342 98.5839 185.776 98.7719L185.149 100.708C184.824 100.59 183.495 100.069 182.139 100.069C179.83 100.069 178.963 101.746 178.963 104.345C178.963 106.943 179.67 108.644 181.837 108.644C183.411 108.644 185.205 107.394 185.502 107.178L186.671 108.714Z" fill="#003768"/>
<path d="M192.212 107.864C192.212 108.738 192.212 109.588 192.376 110.345H189.201C189.366 109.588 189.366 108.738 189.366 107.864V100.966C189.366 100.092 189.366 99.2417 189.201 98.4852H192.376C192.212 99.2417 192.212 100.092 192.212 100.966V107.864ZM189.361 93.0535H192.212V95.6519H189.361V93.0535Z" fill="#003768"/>
<path d="M206.491 107.864C206.491 108.334 206.491 109.4 206.656 110.345H203.641V108.644C202.991 109.142 201.309 110.65 199 110.65C196.885 110.65 195.58 109.161 195.58 107.107C195.58 103.306 201.959 102.761 203.641 102.667V101.817C203.641 100.755 203.316 100.186 202.039 100.186C200.06 100.186 198.049 101.037 197.262 101.488L196.287 99.8338C197.21 99.3592 199.759 98.1798 202.501 98.1798C205.836 98.1798 206.491 99.6693 206.491 101.817V107.864ZM203.641 104.298C202.529 104.368 198.43 104.673 198.43 107.107C198.43 108.146 198.92 108.644 199.924 108.644C201.417 108.644 203.344 107.013 203.641 106.731V104.298Z" fill="#003768"/>
<path d="M218.461 108.879C217.863 109.302 215.856 110.65 214.094 110.65C211.786 110.65 211.432 109.208 211.432 107.436V100.257H209.232V98.4852H211.432L211.894 95.4874L214.283 95.0833V98.4852H216.073C216.723 98.4852 217.43 98.4852 217.971 98.3442V100.398C217.43 100.257 216.671 100.257 216.073 100.257H214.283V107.436C214.283 108.028 214.499 108.522 215.098 108.522C215.884 108.522 217.133 107.554 217.43 107.342L218.461 108.879Z" fill="#003768"/>
<path d="M224.067 107.864C224.067 108.738 224.067 109.588 224.232 110.345H221.057C221.222 109.588 221.222 108.738 221.222 107.864V100.966C221.222 100.092 221.222 99.2417 221.057 98.4852H224.232C224.067 99.2417 224.067 100.092 224.067 100.966V107.864ZM221.217 93.0535H224.067V95.6519H221.217V93.0535Z" fill="#003768"/>
<path d="M233.403 110.65C229.875 110.65 227.486 108.55 227.486 104.415C227.486 100.28 230.69 98.1798 233.403 98.1798C236.932 98.1798 239.316 100.28 239.316 104.415C239.316 108.55 236.112 110.65 233.403 110.65ZM230.473 104.415C230.473 106.778 231.368 108.644 233.403 108.644C235.439 108.644 236.334 106.778 236.334 104.415C236.334 102.052 235.439 100.186 233.403 100.186C231.368 100.186 230.473 102.052 230.473 104.415Z" fill="#003768"/>
<path d="M253.167 107.864C253.167 108.738 253.167 109.588 253.332 110.345H250.157C250.322 109.588 250.322 108.738 250.322 107.864V102.197C250.322 101.323 250.077 100.543 249.017 100.543C247.716 100.543 246.006 101.887 245.573 102.291V107.864C245.573 108.738 245.573 109.588 245.738 110.345H242.562C242.727 109.588 242.727 108.738 242.727 107.864V100.966C242.727 100.492 242.727 99.4297 242.562 98.4852H245.573V100.045C246.171 99.5706 248.206 98.1798 250.241 98.1798C253.063 98.1798 253.172 99.9982 253.172 102.197V107.864" fill="#003768"/>
</g>
</g>
<defs>
<clipPath id="clip0_570_1792">
<rect width="269" height="142" fill="white"/>
</clipPath>
</defs>
</svg>
