<svg width="349" height="99" viewBox="0 0 349 99" fill="none" xmlns="http://www.w3.org/2000/svg">
<g clip-path="url(#clip0_570_1846)">
<path d="M105.6 59.0203V38.8922L97.6985 54.3016H93.6736L85.5776 38.8922V59.0203H80.0723V26.1462H85.2445L95.737 46.9471L106.035 26.1462H111.069V59.0203H105.61H105.6Z" fill="#222D64"/>
<path d="M130.99 58.9742V56.9743C127.493 58.6424 125.337 59.2138 123.422 59.2138C118.629 59.2138 115.807 56.2555 115.807 51.8686C115.807 46.6707 121.599 44.7168 124.624 44.7168H130.999V43.4266C130.999 40.7078 128.27 39.7032 125.587 39.7032C124.004 39.7032 122.135 39.8968 119.795 41.8045L117.065 38.3208C120.368 35.6942 123.005 35.1228 125.735 35.1228C131.915 35.1228 136.079 38.2286 136.079 44.0901V58.9742H130.999H130.99ZM130.99 48.901H125.439C124.097 48.901 121.034 49.1867 121.034 51.8594C121.034 53.6289 122.469 54.6703 124.532 54.6703C126.975 54.6703 129.464 53.4261 130.999 52.5229V48.901H130.99Z" fill="#222D64"/>
<path d="M155.13 41.27C154.224 40.3668 152.78 39.9336 151.679 39.9336C150.384 39.9336 148.228 41.2239 146.359 42.6063V59.0203H141.279V35.3532H146.359V37.5006C149.616 35.5467 150.578 35.1136 152.253 35.1136C154.501 35.1136 156.37 35.8785 157.86 37.2149L155.13 41.27Z" fill="#222D64"/>
<path d="M162.699 31.5838C161.024 31.5838 159.775 30.2935 159.775 28.7175C159.775 27.0494 161.024 25.8052 162.699 25.8052C164.281 25.8052 165.577 27.0494 165.577 28.7175C165.577 30.2935 164.281 31.5838 162.699 31.5838ZM160.155 59.0203V35.3532H165.234V59.0203H160.155Z" fill="#222D64"/>
<path d="M191.244 43.7491V59.0111H186.118V44.2652C186.118 41.0672 184.535 39.9705 182.481 40.0166C180.807 40.0166 178.604 41.1133 176.162 42.5879V59.0019H171.082V35.3348H176.162V37.4821C179.854 35.4269 181.38 35.0952 183.055 35.0952C187.848 35.0952 191.244 38.5328 191.244 43.7307V43.7491Z" fill="#222D64"/>
<path d="M200.44 48.901V50.2834C200.44 53.4814 203.262 54.6242 205.613 54.6242C207.093 54.6242 209.591 53.9606 211.266 52.3847L214.144 55.6288C211.507 58.4397 208.592 59.2507 205.566 59.2507C200.774 59.2507 195.314 56.4859 195.314 50.7626V43.7952C195.314 38.072 200.681 35.1597 205.418 35.1597C210.156 35.1597 215.522 37.9706 215.522 43.703V48.901H200.431H200.44ZM205.418 39.7954C203.309 39.7954 200.44 41.0396 200.44 43.8966V45.0855H210.359L210.405 44.3205C210.554 41.0304 207.722 39.7862 205.428 39.7862L205.418 39.7954Z" fill="#222D64"/>
<path d="M232.482 31.1138V59.0203H226.977V31.1138H217.826V26.1555H241.587V31.1138H232.482Z" fill="#222D64"/>
<path d="M258.925 41.27C258.019 40.3668 256.575 39.9336 255.474 39.9336C254.179 39.9336 252.023 41.2239 250.154 42.6063V59.0203H245.074V35.3532H250.154V37.5005C253.411 35.5467 254.373 35.1136 256.048 35.1136C258.296 35.1136 260.165 35.8785 261.655 37.2148L258.925 41.27Z" fill="#222D64"/>
<path d="M277.561 58.9742V56.9743C274.063 58.6424 271.907 59.2138 269.992 59.2138C265.199 59.2138 262.377 56.2554 262.377 51.8685C262.377 46.6706 268.169 44.7168 271.195 44.7168H277.57V43.4265C277.57 40.7078 274.84 39.7032 272.157 39.7032C270.575 39.7032 268.706 39.8967 266.365 41.8045L263.635 38.3208C266.938 35.6942 269.575 35.1228 272.305 35.1228C278.486 35.1228 282.649 38.2286 282.649 44.0901V58.9742H277.57H277.561ZM277.561 48.9009H272.009C270.667 48.9009 267.605 49.1866 267.605 51.8593C267.605 53.6288 269.039 54.6702 271.102 54.6702C273.545 54.6702 276.034 53.4261 277.57 52.5229V48.9009H277.561Z" fill="#222D64"/>
<path d="M294.132 39.7954V59.0203H289.052V39.7954H286.082V35.3624H289.052V33.9339C289.052 28.5885 292.929 25.8237 297.148 25.8237H299.97V30.4041H297.907C295.659 30.4041 294.123 31.7404 294.123 34.6067V35.3716H299.97V39.8046H294.123L294.132 39.7954Z" fill="#222D64"/>
<path d="M309.556 39.7954V59.0203H304.476V39.7954H301.506V35.3624H304.476V33.9339C304.476 28.5885 308.353 25.8237 312.572 25.8237H315.394V30.4041H313.331C311.082 30.4041 309.546 31.7404 309.546 34.6067V35.3716H315.394V39.8046H309.546L309.556 39.7954Z" fill="#222D64"/>
<path d="M321.963 31.5838C320.288 31.5838 319.039 30.2935 319.039 28.7175C319.039 27.0494 320.288 25.8052 321.963 25.8052C323.545 25.8052 324.84 27.0494 324.84 28.7175C324.84 30.2935 323.545 31.5838 321.963 31.5838ZM319.428 59.0203V35.3532H324.507V59.0203H319.428Z" fill="#222D64"/>
<path d="M348.686 38.4591L345.67 42.1363C343.607 40.0811 341.691 39.7954 340.405 39.7954C338.111 39.7954 335.427 41.0857 335.427 44.6615V49.7212C335.427 53.2971 338.111 54.5873 340.405 54.5873C341.793 54.5873 343.857 54.1081 345.337 52.5321L348.548 55.9698C346.105 58.495 343.283 59.2599 340.405 59.2599C335.566 59.2599 330.348 56.449 330.348 50.8179V43.6109C330.348 38.0812 335.668 35.1228 340.405 35.1228C343.283 35.1228 346.392 36.026 348.696 38.4591H348.686Z" fill="#222D64"/>
<path d="M26.999 0L25.6851 4.41454L22.2246 13.3727H45.9576L42.2658 4.41454L40.8594 0" fill="url(#paint0_linear_570_1846)"/>
<path d="M55.9704 26.1278L63.0024 13.8979H5.20117L12.5478 26.1278H55.9704Z" fill="url(#paint1_linear_570_1846)"/>
<path d="M35.2807 18.1651C35.2807 18.1651 34.2166 17.6766 33.06 18.1651C22.6138 22.552 1.06445 26.9112 1.06445 26.9112C12.7875 34.8555 14.2124 60.3013 14.2124 60.3013C18.9683 61.2783 34.1704 60.9465 34.1704 60.9465L35.2807 18.1466V18.1651Z" fill="url(#paint2_linear_570_1846)"/>
<path d="M35.2812 18.1651C34.1153 17.6858 33.0605 18.1651 33.0605 18.1651L34.1709 60.9649C34.1709 60.9649 49.3822 61.2875 54.138 60.3198C54.138 60.3198 55.4057 34.874 67.1287 26.9296C67.1287 26.9296 46.8007 22.9022 35.2904 18.1743L35.2812 18.1651Z" fill="url(#paint3_linear_570_1846)"/>
<path d="M26.0837 30.7912C26.3057 29.9341 25.3897 28.9572 24.0481 28.6162C22.7065 28.2752 21.4388 28.6992 21.2168 29.5563C20.9947 30.4134 21.9107 31.3903 23.2524 31.7313C24.594 32.0723 25.8616 31.6483 26.0837 30.7912Z" fill="white"/>
<path d="M43.6449 28.6162C42.3033 28.9572 41.3873 29.9341 41.6094 30.7912C41.8314 31.6483 43.099 32.0723 44.4407 31.7313C45.7823 31.3903 46.6983 30.4134 46.4762 29.5563C46.2542 28.6992 44.9866 28.2752 43.6449 28.6162Z" fill="white"/>
<path d="M5.21005 13.9164H62.9927L63.3166 13.3634H34.3651V0H33.8192V5.03202L26.0655 13.3542H4.87695L5.21005 13.9072V13.9164ZM33.8192 13.3634H32.8199L33.8192 12.2944V13.3634ZM33.8192 11.9994L32.5423 13.3634H31.1914L33.8099 10.5617V11.9994H33.8192ZM33.8192 10.2576L30.9231 13.3542H29.5722L33.8192 8.81065V10.2484V10.2576ZM33.8192 8.52495L29.2946 13.3634H27.9438L33.8192 7.08723V8.52495ZM33.8192 5.32694V6.78309L27.6662 13.3634H26.3431L33.8192 5.33616V5.32694Z" fill="white"/>
<path d="M56.9777 23.8883C48.8261 22.0358 36.9735 18.3586 35.6782 17.2987C34.3828 16.2389 33.6796 16.2389 32.3842 17.2987C31.0888 18.3586 19.2362 22.0358 11.0847 23.8883C4.96866 25.2799 0 26.2476 0 26.2476C0.314589 26.4596 1.06405 26.9112 1.06405 26.9112C1.94305 26.7545 16.9046 24.2477 32.56 18.5798C32.56 18.7549 33.1892 44.5509 33.1892 44.5509L18.0426 60.7529H18.0611L18.5238 60.7806H18.5608L33.1984 45.1223L33.2632 47.9148L21.133 60.8912H21.1885L21.6604 60.9096H21.6697L33.2817 48.4954L33.3465 51.2879L24.2974 60.9741H24.7878H24.8433L33.365 51.8593L33.4298 54.6518L27.5081 60.9926H27.6746H28.0632L33.4483 55.2325L33.513 58.025L30.7465 60.9833H31.3017L33.5223 58.6056L33.5778 60.9557H33.6703H34.4846L34.5401 58.6056V58.0342L34.6233 55.2325V54.6611L34.7066 51.8593V51.2879L34.7899 48.4862V47.9148L34.8732 45.1131V44.5417C34.8732 44.5417 35.5116 18.7457 35.5116 18.5706C51.1578 24.2293 66.2303 26.7453 67.1093 26.9112C67.1093 26.9112 67.7478 26.4504 68.0624 26.2384C68.0624 26.2384 63.0937 25.2707 56.9777 23.8791V23.8883Z" fill="white"/>
<path d="M87.4466 88.042H91.7953V94.2353C91.1199 94.4472 90.4352 94.6131 89.732 94.7237C89.0288 94.8343 88.2238 94.8896 87.2986 94.8896C85.3648 94.8896 83.8566 94.3182 82.7833 93.1662C81.7007 92.0234 81.1641 90.4106 81.1641 88.3461C81.1641 87.019 81.4324 85.867 81.969 84.8716C82.5057 83.8763 83.2737 83.1114 84.2729 82.586C85.2722 82.0607 86.4473 81.8027 87.7982 81.8027C89.1491 81.8027 90.4352 82.0515 91.6103 82.5492L91.0366 83.8579C89.88 83.3694 88.7697 83.1298 87.7057 83.1298C86.1512 83.1298 84.9299 83.5906 84.0601 84.5122C83.1904 85.4338 82.7463 86.7149 82.7463 88.3554C82.7463 90.0788 83.1719 91.3783 84.0139 92.263C84.8559 93.1478 86.0957 93.5994 87.7242 93.5994C88.6124 93.5994 89.4729 93.498 90.3242 93.2952V89.3784H87.4651V88.0512L87.4466 88.042Z" fill="#222D64"/>
<path d="M96.0894 94.7145H94.6367V81.1667H96.0894V94.7145Z" fill="#222D64"/>
<path d="M107.441 89.9313C107.441 91.4888 107.043 92.7054 106.257 93.5717C105.471 94.4472 104.379 94.8804 103 94.8804C102.14 94.8804 101.381 94.6776 100.715 94.2813C100.048 93.8851 99.5396 93.3044 99.1787 92.5579C98.8179 91.8114 98.6328 90.9359 98.6328 89.9313C98.6328 88.3738 99.0214 87.1665 99.8079 86.3001C100.594 85.4338 101.677 85.0007 103.056 85.0007C104.434 85.0007 105.461 85.443 106.248 86.337C107.034 87.231 107.432 88.4291 107.432 89.9405L107.441 89.9313ZM100.141 89.9313C100.141 91.1478 100.382 92.0787 100.872 92.7146C101.362 93.3505 102.084 93.6731 103.028 93.6731C103.972 93.6731 104.703 93.3505 105.193 92.7146C105.683 92.0787 105.933 91.1478 105.933 89.9221C105.933 88.6963 105.683 87.7839 105.193 87.1572C104.703 86.5306 103.972 86.2172 103.009 86.2172C102.047 86.2172 101.344 86.5305 100.863 87.148C100.382 87.7655 100.141 88.6963 100.141 89.9221V89.9313Z" fill="#222D64"/>
<path d="M114.447 85.0099C115.705 85.0099 116.686 85.4338 117.38 86.2909C118.074 87.148 118.425 88.3554 118.425 89.9221C118.425 91.4888 118.074 92.7054 117.37 93.5717C116.667 94.438 115.696 94.8712 114.447 94.8712C113.827 94.8712 113.253 94.7606 112.735 94.5302C112.217 94.2998 111.782 93.9496 111.44 93.4703H111.338L111.032 94.6961H109.996V81.1483H111.449V84.4385C111.449 85.1758 111.421 85.8393 111.375 86.42H111.449C112.124 85.4707 113.123 84.9915 114.456 84.9915L114.447 85.0099ZM114.234 86.2264C113.244 86.2264 112.531 86.5121 112.096 87.0743C111.662 87.6365 111.44 88.595 111.44 89.9313C111.44 91.2677 111.662 92.2354 112.115 92.8068C112.568 93.3782 113.281 93.6731 114.271 93.6731C115.159 93.6731 115.825 93.3505 116.26 92.7054C116.695 92.0602 116.917 91.1294 116.917 89.9129C116.917 88.6963 116.695 87.7471 116.26 87.1388C115.825 86.5306 115.15 86.2264 114.234 86.2264Z" fill="#222D64"/>
<path d="M126.845 94.7145L126.558 93.3597H126.484C126.003 93.9588 125.531 94.3643 125.059 94.5763C124.588 94.7882 123.995 94.8988 123.283 94.8988C122.33 94.8988 121.59 94.6592 121.053 94.1708C120.516 93.6823 120.248 92.9911 120.248 92.0879C120.248 90.1617 121.793 89.1479 124.893 89.0558L126.521 89.0005V88.4107C126.521 87.6641 126.364 87.1112 126.04 86.7517C125.716 86.3923 125.198 86.2172 124.486 86.2172C123.69 86.2172 122.783 86.4568 121.775 86.9453L121.331 85.8393C121.802 85.5813 122.321 85.3877 122.885 85.2403C123.449 85.0928 124.014 85.0191 124.578 85.0191C125.716 85.0191 126.568 85.2679 127.123 85.7748C127.669 86.2817 127.946 87.0927 127.946 88.2079V94.7237H126.873L126.845 94.7145ZM123.57 93.6915C124.476 93.6915 125.18 93.4427 125.698 92.9542C126.216 92.4565 126.475 91.7653 126.475 90.8806V90.0143L125.022 90.0788C123.866 90.1156 123.033 90.3 122.524 90.6133C122.015 90.9267 121.756 91.4243 121.756 92.0879C121.756 92.6132 121.914 93.0095 122.228 93.2768C122.543 93.5533 122.987 93.6823 123.56 93.6823L123.57 93.6915Z" fill="#222D64"/>
<path d="M132.369 94.7145H130.916V81.1667H132.369V94.7145Z" fill="#222D64"/>
<path d="M147.523 91.323C147.523 92.4473 147.116 93.3137 146.302 93.9404C145.487 94.5671 144.377 94.8804 142.98 94.8804C141.462 94.8804 140.297 94.6869 139.482 94.2998V92.8713C140.01 93.0925 140.574 93.2676 141.194 93.3966C141.814 93.5256 142.425 93.5901 143.026 93.5901C144.016 93.5901 144.766 93.4058 145.265 93.028C145.765 92.6501 146.015 92.134 146.015 91.4612C146.015 91.0188 145.922 90.6594 145.746 90.3737C145.571 90.088 145.275 89.8299 144.858 89.5903C144.442 89.3507 143.803 89.0834 142.952 88.7793C141.768 88.3554 140.917 87.8577 140.408 87.2771C139.899 86.6965 139.64 85.9407 139.64 85.0007C139.64 84.0238 140.01 83.2404 140.75 82.6598C141.49 82.0792 142.471 81.7935 143.683 81.7935C144.895 81.7935 146.126 82.0239 147.19 82.4939L146.727 83.7842C145.672 83.3418 144.645 83.1206 143.646 83.1206C142.86 83.1206 142.249 83.2865 141.805 83.6275C141.361 83.9685 141.139 84.4293 141.139 85.0283C141.139 85.4707 141.222 85.8301 141.379 86.1158C141.546 86.4015 141.814 86.6596 142.203 86.89C142.591 87.1204 143.183 87.3877 143.979 87.6734C145.321 88.1526 146.246 88.6595 146.746 89.2033C147.245 89.747 147.504 90.4566 147.504 91.323H147.523Z" fill="#222D64"/>
<path d="M156.47 94.7145V88.5397C156.47 87.7655 156.294 87.1849 155.934 86.7978C155.582 86.4107 155.018 86.2264 154.268 86.2264C153.26 86.2264 152.529 86.5029 152.057 87.0467C151.585 87.5904 151.363 88.4844 151.363 89.7286V94.7145H149.91V81.1667H151.363V85.2679C151.363 85.7656 151.335 86.1711 151.289 86.4937H151.372C151.659 86.0329 152.066 85.6734 152.593 85.4062C153.121 85.1389 153.722 85.0099 154.398 85.0099C155.573 85.0099 156.452 85.2864 157.035 85.8393C157.618 86.3923 157.914 87.2771 157.914 88.4844V94.7145H156.461H156.47Z" fill="#222D64"/>
<path d="M160.783 82.586C160.783 82.2543 160.866 82.0146 161.024 81.858C161.19 81.7013 161.394 81.6276 161.634 81.6276C161.866 81.6276 162.069 81.7013 162.236 81.858C162.402 82.0146 162.486 82.2543 162.486 82.5768C162.486 82.8994 162.402 83.1482 162.236 83.3049C162.069 83.4616 161.866 83.5445 161.634 83.5445C161.394 83.5445 161.181 83.4616 161.024 83.3049C160.857 83.1482 160.783 82.8994 160.783 82.5768V82.586ZM162.356 94.7145H160.903V85.1666H162.356V94.7145Z" fill="#222D64"/>
<path d="M169.897 94.8896C169.277 94.8896 168.704 94.779 168.186 94.5486C167.667 94.3182 167.233 93.968 166.89 93.4888H166.788C166.862 94.0417 166.89 94.5763 166.89 95.0739V99H165.438V85.1758H166.622L166.825 86.4845H166.899C167.27 85.9591 167.704 85.5813 168.204 85.3509C168.704 85.1205 169.268 85.0007 169.907 85.0007C171.174 85.0007 172.155 85.4338 172.849 86.3001C173.543 87.1665 173.885 88.3738 173.885 89.9405C173.885 91.5073 173.534 92.7238 172.83 93.5901C172.127 94.4565 171.156 94.8896 169.907 94.8896H169.897ZM169.684 86.2264C168.704 86.2264 168 86.4937 167.556 87.0374C167.121 87.5812 166.899 88.4383 166.881 89.618V89.9405C166.881 91.2861 167.103 92.2446 167.556 92.816C168.01 93.3874 168.722 93.6823 169.712 93.6823C170.536 93.6823 171.183 93.3505 171.655 92.6777C172.127 92.0142 172.358 91.0925 172.358 89.9129C172.358 88.7332 172.127 87.8116 171.655 87.1757C171.183 86.5398 170.526 86.2264 169.675 86.2264H169.684Z" fill="#222D64"/>
<path d="M185.21 94.7145H183.721V83.2957H179.668V81.9778H189.254V83.2957H185.21V94.7145Z" fill="#222D64"/>
<path d="M195.332 84.9915C195.758 84.9915 196.137 85.0283 196.479 85.0928L196.276 86.4384C195.878 86.3554 195.526 86.3094 195.23 86.3094C194.453 86.3094 193.796 86.6227 193.241 87.2494C192.695 87.8761 192.418 88.6595 192.418 89.5903V94.7145H190.965V85.1666H192.158L192.325 86.9361H192.399C192.751 86.3186 193.185 85.8393 193.685 85.4983C194.185 85.1573 194.74 84.9915 195.341 84.9915H195.332Z" fill="#222D64"/>
<path d="M204.169 94.7145L203.883 93.3597H203.809C203.327 93.9588 202.856 94.3643 202.384 94.5763C201.912 94.7882 201.32 94.8988 200.607 94.8988C199.654 94.8988 198.914 94.6592 198.377 94.1708C197.841 93.6823 197.572 92.9911 197.572 92.0879C197.572 90.1617 199.117 89.1479 202.217 89.0558L203.846 89.0005V88.4107C203.846 87.6641 203.688 87.1112 203.364 86.7517C203.041 86.3923 202.522 86.2172 201.81 86.2172C201.014 86.2172 200.107 86.4568 199.099 86.9453L198.655 85.8393C199.127 85.5813 199.645 85.3877 200.209 85.2403C200.774 85.0928 201.338 85.0191 201.903 85.0191C203.041 85.0191 203.892 85.2679 204.447 85.7748C204.993 86.2817 205.27 87.0927 205.27 88.2079V94.7237H204.197L204.169 94.7145ZM200.885 93.6915C201.791 93.6915 202.495 93.4427 203.013 92.9542C203.531 92.4565 203.79 91.7653 203.79 90.8806V90.0143L202.337 90.0788C201.181 90.1156 200.348 90.3 199.839 90.6133C199.33 90.9267 199.071 91.4243 199.071 92.0879C199.071 92.6132 199.228 93.0095 199.543 93.2768C199.858 93.5533 200.302 93.6823 200.875 93.6823L200.885 93.6915Z" fill="#222D64"/>
<path d="M212.061 94.8896C210.673 94.8896 209.6 94.4657 208.841 93.6178C208.082 92.7699 207.703 91.5626 207.703 90.005C207.703 88.4475 208.092 87.1757 208.86 86.3001C209.628 85.4246 210.729 84.9915 212.163 84.9915C212.626 84.9915 213.088 85.0375 213.542 85.1389C214.004 85.2403 214.365 85.3509 214.624 85.4891L214.18 86.7149C213.856 86.5858 213.514 86.4845 213.134 86.4015C212.755 86.3186 212.422 86.2725 212.126 86.2725C210.183 86.2725 209.202 87.5075 209.202 89.9774C209.202 91.1478 209.443 92.051 209.915 92.6777C210.386 93.3044 211.09 93.6178 212.024 93.6178C212.82 93.6178 213.643 93.4427 214.485 93.1017V94.3827C213.847 94.7145 213.033 94.8804 212.061 94.8804V94.8896Z" fill="#222D64"/>
<path d="M218.186 89.8299C218.435 89.4797 218.815 89.0097 219.333 88.4383L222.423 85.1758H224.144L220.258 89.2401L224.413 94.7145H222.655L219.268 90.2078L218.176 91.1479V94.7145H216.742V81.1667H218.176V88.3461C218.176 88.6687 218.149 89.1572 218.102 89.8299H218.176H218.186Z" fill="#222D64"/>
<path d="M226.033 82.586C226.033 82.2543 226.116 82.0146 226.274 81.858C226.44 81.7013 226.644 81.6276 226.884 81.6276C227.116 81.6276 227.319 81.7013 227.486 81.858C227.652 82.0146 227.736 82.2543 227.736 82.5768C227.736 82.8994 227.652 83.1482 227.486 83.3049C227.319 83.4616 227.116 83.5445 226.884 83.5445C226.644 83.5445 226.431 83.4616 226.274 83.3049C226.107 83.1482 226.033 82.8994 226.033 82.5768V82.586ZM227.606 94.7145H226.153V85.1666H227.606V94.7145Z" fill="#222D64"/>
<path d="M237.238 94.7145V88.5397C237.238 87.7655 237.062 87.1849 236.701 86.7978C236.35 86.4107 235.785 86.2264 235.036 86.2264C234.036 86.2264 233.296 86.4937 232.834 87.0374C232.371 87.5812 232.13 88.4659 232.13 89.7101V94.7145H230.678V85.1666H231.862L232.093 86.4753H232.167C232.463 86.0052 232.88 85.6366 233.417 85.3785C233.953 85.1205 234.555 84.9915 235.212 84.9915C236.368 84.9915 237.238 85.2679 237.821 85.8209C238.404 86.3739 238.691 87.2586 238.691 88.4844V94.7145H237.238Z" fill="#222D64"/>
<path d="M249.516 85.1666V86.079L247.739 86.2909C247.906 86.4937 248.045 86.761 248.174 87.0835C248.304 87.4153 248.369 87.7839 248.369 88.1987C248.369 89.1295 248.045 89.876 247.406 90.4382C246.768 91.0004 245.889 91.2769 244.769 91.2769C244.482 91.2769 244.214 91.2584 243.964 91.2031C243.344 91.5257 243.039 91.9404 243.039 92.4289C243.039 92.6869 243.15 92.8805 243.363 93.0095C243.576 93.1385 243.946 93.1938 244.473 93.1938H246.166C247.203 93.1938 247.998 93.415 248.554 93.8482C249.109 94.2813 249.386 94.9173 249.386 95.7467C249.386 96.8066 248.961 97.6084 248.109 98.1613C247.258 98.7143 246.018 98.9908 244.381 98.9908C243.132 98.9908 242.16 98.7604 241.485 98.2904C240.809 97.8296 240.467 97.166 240.467 96.3273C240.467 95.7467 240.652 95.249 241.031 94.8251C241.401 94.4012 241.929 94.1154 242.604 93.9588C242.364 93.8482 242.151 93.6731 241.984 93.4427C241.818 93.2123 241.734 92.945 241.734 92.6317C241.734 92.2814 241.827 91.9773 242.012 91.7192C242.197 91.4612 242.493 91.2031 242.891 90.9635C242.391 90.7608 241.993 90.4106 241.679 89.9313C241.364 89.4521 241.207 88.8899 241.207 88.2632C241.207 87.2218 241.522 86.4107 242.151 85.8486C242.78 85.2864 243.668 85.0007 244.825 85.0007C245.324 85.0007 245.778 85.056 246.176 85.1758H249.488L249.516 85.1666ZM241.873 96.3181C241.873 96.8342 242.095 97.2305 242.53 97.4978C242.965 97.7651 243.594 97.8941 244.408 97.8941C245.63 97.8941 246.527 97.7098 247.11 97.3503C247.693 96.9909 247.989 96.4932 247.989 95.8757C247.989 95.3596 247.832 95.0002 247.508 94.7974C247.184 94.5947 246.583 94.4933 245.695 94.4933H243.955C243.298 94.4933 242.78 94.65 242.419 94.9633C242.049 95.2767 241.864 95.7283 241.864 96.3089L241.873 96.3181ZM242.66 88.2263C242.66 88.8899 242.854 89.3968 243.224 89.7378C243.603 90.0788 244.131 90.2539 244.806 90.2539C246.222 90.2539 246.934 89.5719 246.934 88.1987C246.934 86.8255 246.222 86.0513 244.788 86.0513C244.103 86.0513 243.585 86.2356 243.215 86.6043C242.845 86.9729 242.66 87.5167 242.66 88.2355V88.2263Z" fill="#222D64"/>
<path d="M256.344 94.7145V81.987H257.833V94.7145H256.344Z" fill="#222D64"/>
<path d="M267.679 94.7145V88.5397C267.679 87.7655 267.503 87.1849 267.143 86.7978C266.791 86.4107 266.227 86.2264 265.477 86.2264C264.478 86.2264 263.738 86.4937 263.275 87.0374C262.812 87.5812 262.572 88.4659 262.572 89.7101V94.7145H261.119V85.1666H262.303L262.535 86.4753H262.609C262.905 86.0052 263.321 85.6366 263.858 85.3785C264.395 85.1205 264.996 84.9915 265.653 84.9915C266.81 84.9915 267.679 85.2679 268.262 85.8209C268.845 86.3739 269.132 87.2586 269.132 88.4844V94.7145H267.679Z" fill="#222D64"/>
<path d="M275.202 93.6915C275.461 93.6915 275.701 93.673 275.942 93.6362C276.183 93.5993 276.368 93.5625 276.506 93.5164V94.6223C276.349 94.696 276.118 94.7606 275.812 94.8066C275.507 94.8527 275.23 94.8804 274.989 94.8804C273.138 94.8804 272.213 93.9034 272.213 91.9588V86.2817H270.844V85.5813L272.213 84.9822L272.824 82.9454H273.666V85.1573H276.442V86.2817H273.666V91.8943C273.666 92.4657 273.805 92.9081 274.073 93.2215C274.341 93.5348 274.721 93.6823 275.202 93.6823V93.6915Z" fill="#222D64"/>
<path d="M282.482 94.8896C281.067 94.8896 279.947 94.4564 279.133 93.5993C278.319 92.7422 277.902 91.5441 277.902 90.0235C277.902 88.5028 278.282 87.2586 279.04 86.3554C279.799 85.4523 280.826 85.0007 282.103 85.0007C283.306 85.0007 284.259 85.397 284.953 86.1803C285.647 86.9637 285.998 88.0051 285.998 89.2954V90.2078H279.401C279.429 91.3322 279.716 92.1801 280.253 92.7607C280.789 93.3413 281.548 93.6362 282.529 93.6362C283.556 93.6362 284.583 93.4242 285.591 92.9911V94.2813C285.082 94.5025 284.592 94.6592 284.139 94.7514C283.685 94.8435 283.13 94.8988 282.482 94.8988V94.8896ZM282.085 86.208C281.317 86.208 280.706 86.4568 280.243 86.9545C279.79 87.4522 279.512 88.1434 279.438 89.0281H284.444C284.444 88.1157 284.24 87.4153 283.833 86.9361C283.426 86.4476 282.843 86.208 282.085 86.208Z" fill="#222D64"/>
<path d="M289.931 94.7145H288.479V81.1667H289.931V94.7145Z" fill="#222D64"/>
<path d="M294.457 94.7145H293.004V81.1667H294.457V94.7145Z" fill="#222D64"/>
<path d="M297.408 82.586C297.408 82.2543 297.491 82.0146 297.649 81.858C297.815 81.7013 298.019 81.6276 298.259 81.6276C298.491 81.6276 298.694 81.7013 298.861 81.858C299.027 82.0146 299.111 82.2543 299.111 82.5768C299.111 82.8994 299.027 83.1482 298.861 83.3049C298.694 83.4616 298.491 83.5445 298.259 83.5445C298.019 83.5445 297.806 83.4616 297.649 83.3049C297.482 83.1482 297.408 82.8994 297.408 82.5768V82.586ZM298.99 94.7145H297.538V85.1666H298.99V94.7145Z" fill="#222D64"/>
<path d="M309.908 85.1666V86.079L308.132 86.2909C308.298 86.4937 308.437 86.761 308.567 87.0835C308.696 87.4153 308.761 87.7839 308.761 88.1987C308.761 89.1295 308.437 89.876 307.799 90.4382C307.16 91.0004 306.281 91.2769 305.162 91.2769C304.875 91.2769 304.607 91.2584 304.357 91.2031C303.737 91.5257 303.432 91.9404 303.432 92.4289C303.432 92.6869 303.543 92.8805 303.755 93.0095C303.968 93.1385 304.338 93.1938 304.866 93.1938H306.559C307.595 93.1938 308.391 93.415 308.946 93.8482C309.501 94.2813 309.779 94.9173 309.779 95.7467C309.779 96.8066 309.353 97.6084 308.502 98.1613C307.651 98.7143 306.411 98.9908 304.773 98.9908C303.524 98.9908 302.553 98.7604 301.877 98.2904C301.202 97.8296 300.859 97.166 300.859 96.3273C300.859 95.7467 301.044 95.249 301.424 94.8251C301.794 94.4012 302.321 94.1154 302.997 93.9588C302.756 93.8482 302.543 93.6731 302.377 93.4427C302.21 93.2123 302.127 92.945 302.127 92.6317C302.127 92.2814 302.219 91.9773 302.405 91.7192C302.59 91.4612 302.886 91.2031 303.284 90.9635C302.784 90.7608 302.386 90.4106 302.071 89.9313C301.757 89.4521 301.6 88.8899 301.6 88.2632C301.6 87.2218 301.914 86.4107 302.543 85.8486C303.173 85.2864 304.061 85.0007 305.217 85.0007C305.717 85.0007 306.17 85.056 306.568 85.1758H309.881L309.908 85.1666ZM302.266 96.3181C302.266 96.8342 302.488 97.2305 302.923 97.4978C303.358 97.7651 303.987 97.8941 304.801 97.8941C306.022 97.8941 306.92 97.7098 307.503 97.3503C308.086 96.9909 308.382 96.4932 308.382 95.8757C308.382 95.3596 308.224 95.0002 307.901 94.7974C307.577 94.5947 306.975 94.4933 306.087 94.4933H304.348C303.691 94.4933 303.173 94.65 302.812 94.9633C302.442 95.2767 302.257 95.7283 302.257 96.3089L302.266 96.3181ZM303.052 88.2263C303.052 88.8899 303.247 89.3968 303.617 89.7378C303.996 90.0788 304.523 90.2539 305.199 90.2539C306.615 90.2539 307.327 89.5719 307.327 88.1987C307.327 86.8255 306.614 86.0513 305.18 86.0513C304.496 86.0513 303.978 86.2356 303.607 86.6043C303.237 86.9729 303.052 87.5167 303.052 88.2355V88.2263Z" fill="#222D64"/>
<path d="M315.922 94.8896C314.506 94.8896 313.387 94.4564 312.572 93.5993C311.758 92.7422 311.342 91.5441 311.342 90.0235C311.342 88.5028 311.721 87.2586 312.48 86.3554C313.239 85.4523 314.266 85.0007 315.542 85.0007C316.745 85.0007 317.698 85.397 318.392 86.1803C319.086 86.9637 319.438 88.0051 319.438 89.2954V90.2078H312.841C312.868 91.3322 313.155 92.1801 313.692 92.7607C314.229 93.3413 314.987 93.6362 315.968 93.6362C316.995 93.6362 318.022 93.4242 319.031 92.9911V94.2813C318.522 94.5025 318.031 94.6592 317.578 94.7514C317.125 94.8435 316.57 94.8988 315.922 94.8988V94.8896ZM315.524 86.208C314.756 86.208 314.145 86.4568 313.683 86.9545C313.229 87.4522 312.952 88.1434 312.878 89.0281H317.883C317.883 88.1157 317.68 87.4153 317.273 86.9361C316.866 86.4476 316.283 86.208 315.524 86.208Z" fill="#222D64"/>
<path d="M328.478 94.7145V88.5397C328.478 87.7655 328.302 87.1849 327.941 86.7978C327.59 86.4107 327.025 86.2264 326.276 86.2264C325.277 86.2264 324.536 86.4937 324.074 87.0374C323.611 87.5812 323.371 88.4659 323.371 89.7101V94.7145H321.918V85.1666H323.102L323.334 86.4753H323.408C323.704 86.0052 324.12 85.6366 324.657 85.3785C325.193 85.1205 325.795 84.9915 326.452 84.9915C327.608 84.9915 328.478 85.2679 329.061 85.8209C329.644 86.3739 329.931 87.2586 329.931 88.4844V94.7145H328.478Z" fill="#222D64"/>
<path d="M336.731 94.8896C335.343 94.8896 334.27 94.4657 333.511 93.6178C332.752 92.7699 332.373 91.5626 332.373 90.005C332.373 88.4475 332.762 87.1757 333.53 86.3001C334.298 85.4246 335.399 84.9915 336.833 84.9915C337.295 84.9915 337.758 85.0375 338.211 85.1389C338.674 85.2403 339.035 85.3509 339.294 85.4891L338.85 86.7149C338.526 86.5858 338.184 86.4845 337.804 86.4015C337.425 86.3186 337.092 86.2725 336.796 86.2725C334.853 86.2725 333.872 87.5075 333.872 89.9774C333.872 91.1478 334.113 92.051 334.584 92.6777C335.056 93.3044 335.76 93.6178 336.694 93.6178C337.49 93.6178 338.313 93.4427 339.155 93.1017V94.3827C338.517 94.7145 337.703 94.8804 336.731 94.8804V94.8896Z" fill="#222D64"/>
<path d="M345.475 94.8896C344.059 94.8896 342.939 94.4564 342.125 93.5993C341.311 92.7422 340.895 91.5441 340.895 90.0235C340.895 88.5028 341.274 87.2586 342.033 86.3554C342.791 85.4523 343.818 85.0007 345.095 85.0007C346.298 85.0007 347.251 85.397 347.945 86.1803C348.639 86.9637 348.991 88.0051 348.991 89.2954V90.2078H342.393C342.421 91.3322 342.708 92.1801 343.245 92.7607C343.781 93.3413 344.54 93.6362 345.521 93.6362C346.548 93.6362 347.575 93.4242 348.583 92.9911V94.2813C348.075 94.5025 347.584 94.6592 347.131 94.7514C346.677 94.8435 346.122 94.8988 345.475 94.8988V94.8896ZM345.086 86.208C344.318 86.208 343.707 86.4568 343.245 86.9545C342.791 87.4522 342.514 88.1434 342.44 89.0281H347.445C347.445 88.1157 347.242 87.4153 346.835 86.9361C346.428 86.4476 345.845 86.208 345.086 86.208Z" fill="#222D64"/>
</g>
<defs>
<linearGradient id="paint0_linear_570_1846" x1="27.4986" y1="-0.285701" x2="37.9935" y2="17.9521" gradientUnits="userSpaceOnUse">
<stop stop-color="#14BEF0"/>
<stop offset="1" stop-color="#0B99D6"/>
</linearGradient>
<linearGradient id="paint1_linear_570_1846" x1="34.0971" y1="26.1278" x2="34.0971" y2="13.8979" gradientUnits="userSpaceOnUse">
<stop stop-color="#14BEF0"/>
<stop offset="0.36" stop-color="#13BAED"/>
<stop offset="0.65" stop-color="#10B0E6"/>
<stop offset="0.92" stop-color="#0C9FDA"/>
<stop offset="1" stop-color="#0B99D6"/>
</linearGradient>
<linearGradient id="paint2_linear_570_1846" x1="18.1726" y1="61.011" x2="18.1726" y2="17.9439" gradientUnits="userSpaceOnUse">
<stop stop-color="#0B99D6"/>
<stop offset="1" stop-color="#14BEF0"/>
</linearGradient>
<linearGradient id="paint3_linear_570_1846" x1="67.1195" y1="39.482" x2="33.0605" y2="39.482" gradientUnits="userSpaceOnUse">
<stop stop-color="#14BEF0"/>
<stop offset="1" stop-color="#0B99D6"/>
</linearGradient>
<clipPath id="clip0_570_1846">
<rect width="349" height="99" fill="white"/>
</clipPath>
</defs>
</svg>
