<svg width="368" height="302" viewBox="0 0 368 302" fill="none" xmlns="http://www.w3.org/2000/svg">
<path d="M363.63 224.201C341.945 224.201 320.261 224.164 298.577 224.274C295.731 224.274 293.835 223.378 291.901 221.404C279.459 208.609 266.906 195.924 254.371 183.203C223.202 151.545 192.034 119.905 160.865 88.229C134.011 60.9396 107.156 33.6685 80.3578 6.34255L74.1464 0H14.6912L-0.242264 17.5288C-18.0955 38.2746 -35.8744 59.0752 -53.6533 79.8759C-56.2569 82.9283 -58.7675 86.0722 -62.0592 90.0568H-35.3909C-36.6369 91.6105 -37.3064 92.561 -38.0875 93.42C-77.4576 136.831 -116.865 180.242 -156.198 223.689C-158.058 225.736 -159.936 226.668 -162.8 226.65C-183.945 226.522 -205.09 226.577 -226.235 226.577C-227.816 226.577 -229.396 226.577 -232 226.577C-230.81 227.893 -230.401 228.405 -229.936 228.88C-205.666 252.66 -181.397 276.477 -157.035 300.165C-155.882 301.28 -153.725 301.938 -152.032 301.938C-6.34213 302.011 139.367 302.03 285.057 301.938C286.805 301.938 288.981 301.024 290.227 299.818C314.44 276.349 338.542 252.788 362.663 229.246C364.132 227.802 365.657 226.431 368 224.256C365.694 224.256 364.652 224.256 363.63 224.256V224.201ZM175.687 226.65C176.393 227.381 177.026 228.222 178.067 229.447H106.729C118.817 216.67 130.31 204.515 142.175 191.976C153.724 203.93 164.714 215.281 175.687 226.65ZM39.0163 159.66C51.2719 146.628 62.8207 134.308 74.7787 121.587C86.9412 134.235 98.7876 146.555 111.396 159.66H39.0163ZM56.2931 207.202C56.1629 217.895 47.2735 226.668 36.6731 226.559C25.9983 226.449 17.4436 217.602 17.5552 206.782C17.6482 196.071 26.6306 187.151 37.1008 187.352C47.6826 187.553 56.4233 196.582 56.2931 207.202ZM-23.5445 159.167C-23.4515 150.759 -18.7092 145.915 -11.0844 146.171C-6.21196 146.336 -2.19496 149.461 -0.837357 154.378C-0.353836 156.151 -0.149277 158.052 -0.149277 159.898C-0.0934906 178.798 -0.0934906 197.679 -0.0934906 216.579C-0.0934906 222.976 -2.95746 227.783 -7.68114 229.556C-15.8081 232.59 -23.4329 226.851 -23.5259 217.456C-23.6375 207.75 -23.5445 198.026 -23.5445 188.321C-23.5445 178.615 -23.6189 168.891 -23.5259 159.185L-23.5445 159.167ZM-82.4603 206.38C-82.1441 195.559 -73.1617 186.968 -62.5613 187.37C-51.961 187.772 -43.4621 196.93 -43.7782 207.586C-44.0944 218.206 -53.1512 226.796 -63.8073 226.54C-74.4077 226.303 -82.7764 217.237 -82.4603 206.361V206.38ZM307.448 257.577C298.577 266.734 289.669 275.855 280.872 285.067C278.975 287.06 276.967 287.864 274.14 287.864C137.265 287.791 0.39003 287.791 -136.466 287.864C-139.498 287.864 -141.432 286.877 -143.366 284.702C-152.646 274.301 -162.112 264.047 -171.503 253.738C-172.359 252.788 -173.103 251.71 -174.088 250.43H314.198C311.39 253.409 309.456 255.511 307.466 257.577H307.448Z" fill="#2E368F" fill-opacity="0.17"/>
</svg>
