<svg width="47" height="47" viewBox="0 0 47 47" fill="none" xmlns="http://www.w3.org/2000/svg">
<mask id="mask0_378_2963" style="mask-type:alpha" maskUnits="userSpaceOnUse" x="0" y="0" width="47" height="47">
<rect width="47" height="47" fill="#D9D9D9"/>
</mask>
<g mask="url(#mask0_378_2963)">
<path d="M23.5004 29.522L29.5223 23.5001L23.5004 17.4783L22.5702 18.4085L26.9764 22.8147H16.94V24.1856H26.9764L22.5702 28.5918L23.5004 29.522ZM23.5087 40.5376C21.1532 40.5376 18.9381 40.0907 16.8636 39.1967C14.7891 38.3027 12.9846 37.0893 11.4503 35.5566C9.9156 34.0239 8.70078 32.2217 7.80582 30.1502C6.91053 28.0782 6.46289 25.8643 6.46289 23.5085C6.46289 21.1529 6.90988 18.9379 7.80386 16.8634C8.69784 14.7888 9.91119 12.9844 11.4439 11.45C12.9766 9.91535 14.7788 8.70053 16.8504 7.80557C18.9223 6.91029 21.1362 6.46265 23.4921 6.46265C25.8476 6.46265 28.0627 6.90964 30.1372 7.80362C32.2117 8.6976 34.0162 9.91094 35.5505 11.4437C37.0852 12.9764 38.3 14.7785 39.195 16.8501C40.0902 18.9221 40.5379 21.1359 40.5379 23.4918C40.5379 25.8474 40.0909 28.0624 39.1969 30.1369C38.3029 32.2115 37.0896 34.0159 35.5569 35.5503C34.0241 37.0849 32.222 38.2998 30.1504 39.1947C28.0785 40.09 25.8646 40.5376 23.5087 40.5376Z" fill="#2D358B"/>
</g>
</svg>
