<svg width="128" height="128" viewBox="0 0 128 128" fill="none" xmlns="http://www.w3.org/2000/svg">
<mask id="mask0_378_2952" style="mask-type:alpha" maskUnits="userSpaceOnUse" x="0" y="0" width="128" height="128">
<rect width="127.719" height="127.719" fill="#D9D9D9"/>
</mask>
<g mask="url(#mask0_378_2952)">
<path d="M63.8601 78.095L78.0955 63.8596L63.8601 49.6242L61.9975 51.4868L73.0399 62.5292H48.1612V65.19H73.0399L61.9975 76.2324L63.8601 78.095ZM63.8827 108.029C57.8364 108.029 52.1276 106.881 46.7563 104.585C41.385 102.289 36.6811 99.1244 32.6446 95.0923C28.6073 91.0603 25.4391 86.3626 23.1402 80.9993C20.8403 75.6351 19.6904 69.9294 19.6904 63.8822C19.6904 57.7472 20.8386 52.0163 23.1349 46.6893C25.4312 41.3623 28.5953 36.6806 32.6273 32.6442C36.6594 28.6068 41.3571 25.4386 46.7204 23.1397C52.0846 20.8399 57.7903 19.6899 63.8375 19.6899C69.9724 19.6899 75.7034 20.8381 81.0304 23.1344C86.3573 25.4307 91.0391 28.5948 95.0755 32.6269C99.1129 36.6589 102.281 41.3344 104.58 46.6534C106.88 51.9733 108.03 57.7011 108.03 63.837C108.03 69.8833 106.882 75.592 104.585 80.9634C102.289 86.3347 99.1249 91.0386 95.0928 95.075C91.0608 99.1124 86.3853 102.281 81.0663 104.579C75.7464 106.879 70.0186 108.029 63.8827 108.029ZM63.8601 105.368C75.3903 105.368 85.191 101.333 93.2622 93.2617C101.333 85.1905 105.369 75.3898 105.369 63.8596C105.369 52.3294 101.333 42.5287 93.2622 34.4575C85.191 26.3863 75.3903 22.3508 63.8601 22.3508C52.3299 22.3508 42.5292 26.3863 34.458 34.4575C26.3868 42.5287 22.3513 52.3294 22.3513 63.8596C22.3513 75.3898 26.3868 85.1905 34.458 93.2617C42.5292 101.333 52.3299 105.368 63.8601 105.368Z" fill="white"/>
</g>
</svg>
