<svg width="63" height="63" viewBox="0 0 63 63" fill="none" xmlns="http://www.w3.org/2000/svg">
<mask id="mask0_346_3356" style="mask-type:alpha" maskUnits="userSpaceOnUse" x="0" y="0" width="64" height="63">
<rect x="0.847656" width="62.1533" height="62.1533" fill="#D9D9D9"/>
</mask>
<g mask="url(#mask0_346_3356)">
<path d="M16.9037 52.5712C15.924 52.5712 15.1179 52.2475 14.4856 51.6001C13.8533 50.9527 13.5371 50.1542 13.5371 49.2046V19.1638C13.5371 18.2143 13.8533 17.4158 14.4856 16.7683C15.1179 16.1209 15.924 15.7972 16.9037 15.7972H24.155V8.80493H25.7088V15.7972H38.3984V8.80493H39.6933V15.7972H46.9445C47.9243 15.7972 48.7304 16.1209 49.3627 16.7683C49.995 17.4158 50.3112 18.2143 50.3112 19.1638V49.2046C50.3112 50.1542 49.995 50.9527 49.3627 51.6001C48.7304 52.2475 47.9243 52.5712 46.9445 52.5712H16.9037ZM16.9037 51.2764H46.9445C47.4625 51.2764 47.9373 51.0606 48.3689 50.6289C48.8005 50.1973 49.0163 49.7225 49.0163 49.2046V30.0406H14.832V49.2046C14.832 49.7225 15.0478 50.1973 15.4794 50.6289C15.911 51.0606 16.3858 51.2764 16.9037 51.2764ZM14.832 28.7458H49.0163V19.1638C49.0163 18.6459 48.8005 18.1711 48.3689 17.7395C47.9373 17.3079 47.4625 17.092 46.9445 17.092H16.9037C16.3858 17.092 15.911 17.3079 15.4794 17.7395C15.0478 18.1711 14.832 18.6459 14.832 19.1638V28.7458ZM31.9377 37.8098C31.5402 37.8098 31.1796 37.6525 30.8559 37.3378C30.5322 37.0232 30.3703 36.6671 30.3703 36.2696C30.3703 35.8721 30.5276 35.5114 30.8423 35.1877C31.1569 34.864 31.513 34.7021 31.9105 34.7021C32.3081 34.7021 32.6687 34.8595 32.9924 35.1741C33.3161 35.4888 33.478 35.8449 33.478 36.2424C33.478 36.6399 33.3206 37.0005 33.006 37.3242C32.6913 37.648 32.3353 37.8098 31.9377 37.8098ZM21.8378 37.8098C21.4403 37.8098 21.0797 37.6525 20.756 37.3378C20.4322 37.0232 20.2704 36.6671 20.2704 36.2696C20.2704 35.8721 20.4277 35.5114 20.7424 35.1877C21.057 34.864 21.4131 34.7021 21.8106 34.7021C22.2081 34.7021 22.5688 34.8595 22.8925 35.1741C23.2162 35.4888 23.3781 35.8449 23.3781 36.2424C23.3781 36.6399 23.2207 37.0005 22.9061 37.3242C22.5914 37.648 22.2353 37.8098 21.8378 37.8098ZM42.0376 37.8098C41.6401 37.8098 41.2795 37.6525 40.9558 37.3378C40.6321 37.0232 40.4702 36.6671 40.4702 36.2696C40.4702 35.8721 40.6275 35.5114 40.9422 35.1877C41.2568 34.864 41.6129 34.7021 42.0105 34.7021C42.408 34.7021 42.7686 34.8595 43.0923 35.1741C43.416 35.4888 43.5779 35.8449 43.5779 36.2424C43.5779 36.6399 43.4206 37.0005 43.1059 37.3242C42.7913 37.648 42.4352 37.8098 42.0376 37.8098ZM31.9377 46.6149C31.5402 46.6149 31.1796 46.4575 30.8559 46.1429C30.5322 45.8282 30.3703 45.4721 30.3703 45.0746C30.3703 44.6771 30.5276 44.3165 30.8423 43.9928C31.1569 43.6691 31.513 43.5072 31.9105 43.5072C32.3081 43.5072 32.6687 43.6645 32.9924 43.9792C33.3161 44.2938 33.478 44.6499 33.478 45.0474C33.478 45.445 33.3206 45.8056 33.006 46.1293C32.6913 46.453 32.3353 46.6149 31.9377 46.6149ZM21.8378 46.6149C21.4403 46.6149 21.0797 46.4575 20.756 46.1429C20.4322 45.8282 20.2704 45.4721 20.2704 45.0746C20.2704 44.6771 20.4277 44.3165 20.7424 43.9928C21.057 43.6691 21.4131 43.5072 21.8106 43.5072C22.2081 43.5072 22.5688 43.6645 22.8925 43.9792C23.2162 44.2938 23.3781 44.6499 23.3781 45.0474C23.3781 45.445 23.2207 45.8056 22.9061 46.1293C22.5914 46.453 22.2353 46.6149 21.8378 46.6149ZM42.0376 46.6149C41.6401 46.6149 41.2795 46.4575 40.9558 46.1429C40.6321 45.8282 40.4702 45.4721 40.4702 45.0746C40.4702 44.6771 40.6275 44.3165 40.9422 43.9928C41.2568 43.6691 41.6129 43.5072 42.0105 43.5072C42.408 43.5072 42.7686 43.6645 43.0923 43.9792C43.416 44.2938 43.5779 44.6499 43.5779 45.0474C43.5779 45.445 43.4206 45.8056 43.1059 46.1293C42.7913 46.453 42.4352 46.6149 42.0376 46.6149Z" fill="white"/>
</g>
</svg>
