<svg width="63" height="63" viewBox="0 0 63 63" fill="none" xmlns="http://www.w3.org/2000/svg">
<mask id="mask0_346_3359" style="mask-type:alpha" maskUnits="userSpaceOnUse" x="0" y="0" width="63" height="63">
<rect width="62.1533" height="62.1533" fill="#D9D9D9"/>
</mask>
<g mask="url(#mask0_346_3359)">
<path d="M13.4663 46.097L10.5529 34.4433C10.2508 33.3643 10.3371 32.4147 10.8119 31.5946C11.2867 30.7745 11.9125 30.2134 12.6894 29.9113L15.7971 28.8107V17.3511C15.7971 16.3714 16.1133 15.5653 16.7456 14.933C17.3779 14.3007 18.1839 13.9845 19.1637 13.9845H28.2278V7.76917H33.9251V13.9845H42.9892C43.9689 13.9845 44.775 14.3007 45.4073 14.933C46.0396 15.5653 46.3558 16.3714 46.3558 17.3511V28.8107L49.4635 29.9113C50.1541 30.0839 50.8123 30.5911 51.4381 31.4327C52.064 32.2744 52.2043 33.2779 51.859 34.4433L48.6866 46.1618C48.1686 45.428 47.5643 44.8022 46.8737 44.2842L41.9533 40.5939C39.8815 42.4499 38.0363 43.8742 36.4177 44.8669C34.7992 45.8597 33.0187 46.356 31.0764 46.356C29.1342 46.356 27.3537 45.8597 25.7351 44.8669C24.1166 43.8742 22.2714 42.4499 20.1996 40.5939C17.7394 42.493 16.1316 43.7016 15.3763 44.2195C14.6209 44.7374 13.9843 45.3633 13.4663 46.097ZM7.89844 55.679V54.3842H9.32278C11.3946 54.3842 13.3476 54.1144 15.182 53.5749C17.0164 53.0353 18.6889 52.2476 20.1996 51.2117C21.6671 52.2476 23.3181 53.0353 25.1525 53.5749C26.9868 54.1144 28.9507 54.3842 31.0441 54.3842C33.1374 54.3842 35.1013 54.1144 36.9357 53.5749C38.7701 53.0353 40.4426 52.2476 41.9533 51.2117C43.464 52.2476 45.1365 53.0353 46.9709 53.5749C48.8053 54.1144 50.7583 54.3842 52.8301 54.3842H54.2545V55.679H52.8301C50.7583 55.679 48.8053 55.474 46.9709 55.064C45.1365 54.6539 43.464 54.0173 41.9533 53.154C40.4426 54.0173 38.7701 54.6539 36.9357 55.064C35.1013 55.474 33.1374 55.679 31.0441 55.679C28.9507 55.679 26.9976 55.474 25.1848 55.064C23.372 54.6539 21.7103 54.0173 20.1996 53.154C18.6889 54.0173 17.0164 54.6539 15.182 55.064C13.3476 55.474 11.3946 55.679 9.32278 55.679H7.89844ZM17.092 28.0985L31.0764 23.0485L45.0609 28.1632V17.3511C45.0609 16.7469 44.8667 16.2505 44.4783 15.862C44.0898 15.4736 43.5934 15.2794 42.9892 15.2794H19.1637C18.5595 15.2794 18.0631 15.4736 17.6746 15.862C17.2862 16.2505 17.092 16.7469 17.092 17.3511V28.0985ZM31.0764 45.0612C32.5871 45.0612 34.1086 44.7159 35.6408 44.0253C37.1731 43.3347 39.2772 42.0398 41.9533 40.1407C42.8165 40.745 43.7553 41.3384 44.7696 41.9211C45.7839 42.5038 46.8522 43.1189 47.9744 43.7663L51.2763 31.9183L31.0764 24.5376L11.0061 31.8536L14.1785 43.8958C15.3439 43.2052 16.4337 42.547 17.448 41.9211C18.4623 41.2953 19.3795 40.6802 20.1996 40.0759C22.8325 41.9751 24.9259 43.2807 26.4797 43.9929C28.0335 44.7051 29.5658 45.0612 31.0764 45.0612Z" fill="white"/>
</g>
</svg>
