<svg width="63" height="63" viewBox="0 0 63 63" fill="none" xmlns="http://www.w3.org/2000/svg">
<mask id="mask0_346_3362" style="mask-type:alpha" maskUnits="userSpaceOnUse" x="0" y="0" width="63" height="63">
<rect width="62.1533" height="62.1533" fill="#D9D9D9"/>
</mask>
<g mask="url(#mask0_346_3362)">
<path d="M14.486 46.7444C12.6835 46.7444 11.1565 46.1149 9.90477 44.8559C8.65307 43.5973 8.02722 42.0687 8.02722 40.2701H5.4375V17.61C5.4375 16.6303 5.75366 15.8242 6.38599 15.1919C7.01831 14.5596 7.82436 14.2434 8.80414 14.2434H41.9526V22.2715H47.391L56.714 35.3496V40.2701H53.3474C53.3474 42.0687 52.7163 43.5973 51.4543 44.8559C50.1926 46.1149 48.6604 46.7444 46.8575 46.7444C45.0551 46.7444 43.528 46.1149 42.2763 44.8559C41.0246 43.5973 40.3987 42.0687 40.3987 40.2701H20.9758C20.9758 42.0829 20.3448 43.6152 19.0827 44.8669C17.8211 46.1186 16.2889 46.7444 14.486 46.7444ZM14.5015 45.4496C15.9431 45.4496 17.1668 44.9467 18.1725 43.941C19.1781 42.9354 19.681 41.7117 19.681 40.2701C19.681 38.8285 19.1781 37.6049 18.1725 36.5992C17.1668 35.5935 15.9431 35.0907 14.5015 35.0907C13.0599 35.0907 11.8363 35.5935 10.8306 36.5992C9.82492 37.6049 9.32208 38.8285 9.32208 40.2701C9.32208 41.7117 9.82492 42.9354 10.8306 43.941C11.8363 44.9467 13.0599 45.4496 14.5015 45.4496ZM6.73236 38.9753H7.76825C8.02722 37.5077 8.81493 36.2776 10.1314 35.2849C11.4478 34.2922 12.9045 33.7958 14.5015 33.7958C16.0122 33.7958 17.4473 34.2814 18.8069 35.2525C20.1665 36.2237 20.9657 37.4646 21.2044 38.9753H40.6577V15.5383H8.80414C8.28619 15.5383 7.81141 15.7541 7.37979 16.1857C6.94817 16.6173 6.73236 17.0921 6.73236 17.61V38.9753ZM46.8731 45.4496C48.3147 45.4496 49.5383 44.9467 50.544 43.941C51.5497 42.9354 52.0525 41.7117 52.0525 40.2701C52.0525 38.8285 51.5497 37.6049 50.544 36.5992C49.5383 35.5935 48.3147 35.0907 46.8731 35.0907C45.4314 35.0907 44.2078 35.5935 43.2021 36.5992C42.1964 37.6049 41.6936 38.8285 41.6936 40.2701C41.6936 41.7117 42.1964 42.9354 43.2021 43.941C44.2078 44.9467 45.4314 45.4496 46.8731 45.4496ZM41.9526 34.3138L54.3832 34.249L46.5493 23.5664H41.9526V34.3138Z" fill="white"/>
</g>
</svg>
