<svg width="40" height="40" viewBox="0 0 40 40" fill="none" xmlns="http://www.w3.org/2000/svg">
<mask id="mask0_42_1416" style="mask-type:alpha" maskUnits="userSpaceOnUse" x="-1" y="0" width="41" height="40">
<rect width="39.3841" height="39.3841" transform="matrix(-1 0 0 1 39.3838 0)" fill="#D9D9D9"/>
</mask>
<g mask="url(#mask0_42_1416)">
<path d="M19.6915 24.7381L14.6454 19.692L19.6915 14.6459L20.471 15.4254L16.7787 19.1177H25.1889V20.2664H16.7787L20.471 23.9586L19.6915 24.7381ZM19.6846 33.9688C21.6584 33.9688 23.5145 33.5942 25.2529 32.8451C26.9913 32.096 28.5033 31.0792 29.789 29.7949C31.075 28.5105 32.093 27.0004 32.8429 25.2645C33.5932 23.5283 33.9683 21.6731 33.9683 19.699C33.9683 17.7251 33.5937 15.869 32.8446 14.1307C32.0955 12.3923 31.0787 10.8802 29.7944 9.59451C28.51 8.30851 26.9999 7.29054 25.264 6.5406C23.5278 5.79039 21.6726 5.41528 19.6985 5.41528C17.7246 5.41528 15.8685 5.78984 14.1302 6.53896C12.3918 7.28808 10.8797 8.30482 9.59402 9.58918C8.30802 10.8735 7.29005 12.3837 6.54011 14.1196C5.7899 15.8558 5.41479 17.7109 5.41479 19.685C5.41479 21.6589 5.78935 23.515 6.53847 25.2534C7.28759 26.9917 8.30433 28.5038 9.58869 29.7895C10.873 31.0755 12.3832 32.0935 14.1191 32.8434C15.8553 33.5936 17.7104 33.9688 19.6846 33.9688ZM19.6915 32.82C16.0266 32.82 12.9224 31.5483 10.3788 29.0047C7.83528 26.4612 6.5635 23.3569 6.5635 19.692C6.5635 16.0271 7.83528 12.9229 10.3788 10.3793C12.9224 7.83576 16.0266 6.56399 19.6915 6.56399C23.3564 6.56399 26.4607 7.83576 29.0042 10.3793C31.5478 12.9229 32.8196 16.0271 32.8196 19.692C32.8196 23.3569 31.5478 26.4612 29.0042 29.0047C26.4607 31.5483 23.3564 32.82 19.6915 32.82Z" fill="#2E368F"/>
</g>
</svg>
