<svg width="40" height="40" viewBox="0 0 40 40" fill="none" xmlns="http://www.w3.org/2000/svg">
<mask id="mask0_42_1410" style="mask-type:alpha" maskUnits="userSpaceOnUse" x="0" y="0" width="40" height="40">
<rect width="39.3841" height="39.3841" fill="#D9D9D9"/>
</mask>
<g mask="url(#mask0_42_1410)">
<path d="M19.6923 24.7381L24.7383 19.692L19.6923 14.6459L18.9128 15.4254L22.605 19.1177H14.1949V20.2664H22.605L18.9128 23.9586L19.6923 24.7381ZM19.6992 33.9688C17.7254 33.9688 15.8693 33.5942 14.1309 32.8451C12.3925 32.096 10.8805 31.0792 9.59475 29.7949C8.30875 28.5105 7.29078 27.0004 6.54085 25.2645C5.79063 23.5283 5.41553 21.6731 5.41553 19.699C5.41553 17.7251 5.79009 15.869 6.5392 14.1307C7.28832 12.3923 8.30506 10.8802 9.58942 9.59451C10.8738 8.30851 12.3839 7.29054 14.1198 6.5406C15.856 5.79039 17.7112 5.41528 19.6853 5.41528C21.6591 5.41528 23.5153 5.78984 25.2536 6.53896C26.992 7.28808 28.504 8.30482 29.7898 9.58918C31.0758 10.8735 32.0937 12.3837 32.8437 14.1196C33.5939 15.8558 33.969 17.7109 33.969 19.685C33.969 21.6589 33.5944 23.515 32.8453 25.2534C32.0962 26.9917 31.0795 28.5038 29.7951 29.7895C28.5107 31.0755 27.0006 32.0935 25.2647 32.8434C23.5285 33.5936 21.6734 33.9688 19.6992 33.9688ZM19.6923 32.82C23.3572 32.82 26.4614 31.5483 29.005 29.0047C31.5485 26.4612 32.8203 23.3569 32.8203 19.692C32.8203 16.0271 31.5485 12.9229 29.005 10.3793C26.4614 7.83576 23.3572 6.56399 19.6923 6.56399C16.0274 6.56399 12.9231 7.83576 10.3796 10.3793C7.83601 12.9229 6.56423 16.0271 6.56423 19.692C6.56423 23.3569 7.83601 26.4612 10.3796 29.0047C12.9231 31.5483 16.0274 32.82 19.6923 32.82Z" fill="#2E368F"/>
</g>
</svg>
