<svg width="82" height="82" viewBox="0 0 82 82" fill="none" xmlns="http://www.w3.org/2000/svg">
<mask id="mask0_45_1799" style="mask-type:alpha" maskUnits="userSpaceOnUse" x="0" y="0" width="82" height="82">
<rect width="81.533" height="81.533" fill="#D9D9D9"/>
</mask>
<g mask="url(#mask0_45_1799)">
<path d="M21.0629 68.9633C19.7776 68.9633 18.7202 68.5386 17.8907 67.6893C17.0612 66.84 16.6465 65.7925 16.6465 64.5469V25.1393C16.6465 23.8937 17.0612 22.8462 17.8907 21.9969C18.7202 21.1476 19.7776 20.7229 21.0629 20.7229H30.575V11.5505H32.6134V20.7229H49.2597V11.5505H50.9583V20.7229H60.4705C61.7557 20.7229 62.8131 21.1476 63.6426 21.9969C64.4721 22.8462 64.8868 23.8937 64.8868 25.1393V64.5469C64.8868 65.7925 64.4721 66.84 63.6426 67.6893C62.8131 68.5386 61.7557 68.9633 60.4705 68.9633H21.0629ZM21.0629 67.2647H60.4705C61.1499 67.2647 61.7727 66.9816 62.3389 66.4154C62.9051 65.8492 63.1882 65.2263 63.1882 64.5469V39.4076H18.3451V64.5469C18.3451 65.2263 18.6282 65.8492 19.1944 66.4154C19.7606 66.9816 20.3834 67.2647 21.0629 67.2647ZM18.3451 37.709H63.1882V25.1393C63.1882 24.4599 62.9051 23.837 62.3389 23.2708C61.7727 22.7046 61.1499 22.4215 60.4705 22.4215H21.0629C20.3834 22.4215 19.7606 22.7046 19.1944 23.2708C18.6282 23.837 18.3451 24.4599 18.3451 25.1393V37.709ZM40.7845 49.5992C40.263 49.5992 39.79 49.3928 39.3653 48.9801C38.9407 48.5673 38.7283 48.1002 38.7283 47.5787C38.7283 47.0572 38.9347 46.5842 39.3475 46.1595C39.7602 45.7349 40.2273 45.5225 40.7488 45.5225C41.2703 45.5225 41.7434 45.7289 42.168 46.1417C42.5927 46.5544 42.805 47.0216 42.805 47.543C42.805 48.0645 42.5986 48.5376 42.1858 48.9622C41.7731 49.3869 41.306 49.5992 40.7845 49.5992ZM27.5354 49.5992C27.0139 49.5992 26.5408 49.3928 26.1162 48.9801C25.6915 48.5673 25.4792 48.1002 25.4792 47.5787C25.4792 47.0572 25.6856 46.5842 26.0984 46.1595C26.5111 45.7349 26.9782 45.5225 27.4997 45.5225C28.0212 45.5225 28.4942 45.7289 28.9189 46.1417C29.3435 46.5544 29.5559 47.0216 29.5559 47.543C29.5559 48.0645 29.3495 48.5376 28.9367 48.9622C28.524 49.3869 28.0569 49.5992 27.5354 49.5992ZM54.0336 49.5992C53.5121 49.5992 53.0391 49.3928 52.6144 48.9801C52.1898 48.5673 51.9774 48.1002 51.9774 47.5787C51.9774 47.0572 52.1838 46.5842 52.5966 46.1595C53.0093 45.7349 53.4765 45.5225 53.9979 45.5225C54.5194 45.5225 54.9925 45.7289 55.4171 46.1417C55.8418 46.5544 56.0541 47.0216 56.0541 47.543C56.0541 48.0645 55.8477 48.5376 55.4349 48.9622C55.0222 49.3869 54.5551 49.5992 54.0336 49.5992ZM40.7845 61.1497C40.263 61.1497 39.79 60.9433 39.3653 60.5306C38.9407 60.1178 38.7283 59.6507 38.7283 59.1292C38.7283 58.6077 38.9347 58.1347 39.3475 57.71C39.7602 57.2854 40.2273 57.073 40.7488 57.073C41.2703 57.073 41.7434 57.2794 42.168 57.6922C42.5927 58.105 42.805 58.5721 42.805 59.0935C42.805 59.615 42.5986 60.0881 42.1858 60.5127C41.7731 60.9374 41.306 61.1497 40.7845 61.1497ZM27.5354 61.1497C27.0139 61.1497 26.5408 60.9433 26.1162 60.5306C25.6915 60.1178 25.4792 59.6507 25.4792 59.1292C25.4792 58.6077 25.6856 58.1347 26.0984 57.71C26.5111 57.2854 26.9782 57.073 27.4997 57.073C28.0212 57.073 28.4942 57.2794 28.9189 57.6922C29.3435 58.105 29.5559 58.5721 29.5559 59.0935C29.5559 59.615 29.3495 60.0881 28.9367 60.5127C28.524 60.9374 28.0569 61.1497 27.5354 61.1497ZM54.0336 61.1497C53.5121 61.1497 53.0391 60.9433 52.6144 60.5306C52.1898 60.1178 51.9774 59.6507 51.9774 59.1292C51.9774 58.6077 52.1838 58.1347 52.5966 57.71C53.0093 57.2854 53.4765 57.073 53.9979 57.073C54.5194 57.073 54.9925 57.2794 55.4171 57.6922C55.8418 58.105 56.0541 58.5721 56.0541 59.0935C56.0541 59.615 55.8477 60.0881 55.4349 60.5127C55.0222 60.9374 54.5551 61.1497 54.0336 61.1497Z" fill="white"/>
</g>
</svg>
