<svg width="36" height="36" viewBox="0 0 36 36" fill="none" xmlns="http://www.w3.org/2000/svg">
<mask id="mask0_1314_1484" style="mask-type:alpha" maskUnits="userSpaceOnUse" x="0" y="0" width="36" height="36">
<rect width="36" height="36" fill="#D9D9D9"/>
</mask>
<g mask="url(#mask0_1314_1484)">
<path d="M8.42325 31.5001C7.73275 31.5001 7.15625 31.2688 6.69375 30.8063C6.23125 30.3438 6 29.7673 6 29.0768V9.9233C6 9.2328 6.23125 8.6563 6.69375 8.1938C7.15625 7.7313 7.73275 7.50006 8.42325 7.50006H11.0768V4.15393H12.6922V7.50006H23.4233V4.15393H24.9233V7.50006H27.5768C28.2673 7.50006 28.8438 7.7313 29.3063 8.1938C29.7688 8.6563 30 9.2328 30 9.9233V29.0768C30 29.7673 29.7688 30.3438 29.3063 30.8063C28.8438 31.2688 28.2673 31.5001 27.5768 31.5001H8.42325ZM8.42325 30.0001H27.5768C27.8078 30.0001 28.0194 29.9039 28.2116 29.7117C28.4039 29.5194 28.5 29.3078 28.5 29.0768V15.9233H7.5V29.0768C7.5 29.3078 7.59613 29.5194 7.78838 29.7117C7.98063 29.9039 8.19225 30.0001 8.42325 30.0001ZM7.5 14.4229H28.5V9.9233C28.5 9.6923 28.4039 9.48068 28.2116 9.28843C28.0194 9.09618 27.8078 9.00006 27.5768 9.00006H8.42325C8.19225 9.00006 7.98063 9.09618 7.78838 9.28843C7.59613 9.48068 7.5 9.6923 7.5 9.9233V14.4229ZM18 21.2307C17.6905 21.2307 17.4208 21.1158 17.1908 20.8861C16.961 20.6563 16.8461 20.3866 16.8461 20.0768C16.8461 19.7673 16.961 19.4977 17.1908 19.2679C17.4208 19.0382 17.6905 18.9233 18 18.9233C18.3095 18.9233 18.5793 19.0382 18.8092 19.2679C19.039 19.4977 19.1539 19.7673 19.1539 20.0768C19.1539 20.3866 19.039 20.6563 18.8092 20.8861C18.5793 21.1158 18.3095 21.2307 18 21.2307ZM12 21.2307C11.6905 21.2307 11.4208 21.1158 11.1908 20.8861C10.961 20.6563 10.8461 20.3866 10.8461 20.0768C10.8461 19.7673 10.961 19.4977 11.1908 19.2679C11.4208 19.0382 11.6905 18.9233 12 18.9233C12.3095 18.9233 12.5792 19.0382 12.8092 19.2679C13.039 19.4977 13.1539 19.7673 13.1539 20.0768C13.1539 20.3866 13.039 20.6563 12.8092 20.8861C12.5792 21.1158 12.3095 21.2307 12 21.2307ZM24 21.2307C23.6905 21.2307 23.4207 21.1158 23.1908 20.8861C22.961 20.6563 22.8461 20.3866 22.8461 20.0768C22.8461 19.7673 22.961 19.4977 23.1908 19.2679C23.4207 19.0382 23.6905 18.9233 24 18.9233C24.3095 18.9233 24.5793 19.0382 24.8092 19.2679C25.039 19.4977 25.1539 19.7673 25.1539 20.0768C25.1539 20.3866 25.039 20.6563 24.8092 20.8861C24.5793 21.1158 24.3095 21.2307 24 21.2307ZM18 27.0001C17.6905 27.0001 17.4208 26.8852 17.1908 26.6554C16.961 26.4257 16.8461 26.1559 16.8461 25.8462C16.8461 25.5367 16.961 25.2669 17.1908 25.0369C17.4208 24.8072 17.6905 24.6923 18 24.6923C18.3095 24.6923 18.5793 24.8072 18.8092 25.0369C19.039 25.2669 19.1539 25.5367 19.1539 25.8462C19.1539 26.1559 19.039 26.4257 18.8092 26.6554C18.5793 26.8852 18.3095 27.0001 18 27.0001ZM12 27.0001C11.6905 27.0001 11.4208 26.8852 11.1908 26.6554C10.961 26.4257 10.8461 26.1559 10.8461 25.8462C10.8461 25.5367 10.961 25.2669 11.1908 25.0369C11.4208 24.8072 11.6905 24.6923 12 24.6923C12.3095 24.6923 12.5792 24.8072 12.8092 25.0369C13.039 25.2669 13.1539 25.5367 13.1539 25.8462C13.1539 26.1559 13.039 26.4257 12.8092 26.6554C12.5792 26.8852 12.3095 27.0001 12 27.0001ZM24 27.0001C23.6905 27.0001 23.4207 26.8852 23.1908 26.6554C22.961 26.4257 22.8461 26.1559 22.8461 25.8462C22.8461 25.5367 22.961 25.2669 23.1908 25.0369C23.4207 24.8072 23.6905 24.6923 24 24.6923C24.3095 24.6923 24.5793 24.8072 24.8092 25.0369C25.039 25.2669 25.1539 25.5367 25.1539 25.8462C25.1539 26.1559 25.039 26.4257 24.8092 26.6554C24.5793 26.8852 24.3095 27.0001 24 27.0001Z" fill="#2E368F"/>
</g>
</svg>
