<svg width="21" height="21" viewBox="0 0 21 21" fill="none" xmlns="http://www.w3.org/2000/svg">
<mask id="mask0_570_2228" style="mask-type:alpha" maskUnits="userSpaceOnUse" x="0" y="0" width="21" height="21">
<rect width="21" height="21" fill="#D9D9D9"/>
</mask>
<g mask="url(#mask0_570_2228)">
<path d="M17.4563 18.375C15.6333 18.375 13.8323 17.9776 12.0531 17.1828C10.274 16.388 8.65521 15.2615 7.19688 13.8031C5.73854 12.3448 4.61198 10.726 3.81719 8.94688C3.0224 7.16771 2.625 5.36667 2.625 3.54375C2.625 3.28125 2.7125 3.0625 2.8875 2.8875C3.0625 2.7125 3.28125 2.625 3.54375 2.625H7.0875C7.29167 2.625 7.47396 2.69427 7.63438 2.83281C7.79479 2.97135 7.88958 3.13542 7.91875 3.325L8.4875 6.3875C8.51667 6.62083 8.50938 6.81771 8.46563 6.97813C8.42188 7.13854 8.34167 7.27708 8.225 7.39375L6.10313 9.5375C6.39479 10.0771 6.74115 10.5984 7.14219 11.1016C7.54323 11.6047 7.98438 12.0896 8.46563 12.5563C8.91771 13.0083 9.39167 13.4276 9.8875 13.8141C10.3833 14.2005 10.9083 14.5542 11.4625 14.875L13.5188 12.8188C13.65 12.6875 13.8214 12.5891 14.0328 12.5234C14.2443 12.4578 14.4521 12.4396 14.6562 12.4688L17.675 13.0813C17.8792 13.1396 18.0469 13.2453 18.1781 13.3984C18.3094 13.5516 18.375 13.7229 18.375 13.9125V17.4563C18.375 17.7188 18.2875 17.9375 18.1125 18.1125C17.9375 18.2875 17.7188 18.375 17.4563 18.375Z" fill="#2E368F"/>
</g>
</svg>
