<svg width="34" height="11" viewBox="0 0 34 11" fill="none" xmlns="http://www.w3.org/2000/svg">
<g clip-path="url(#clip0_703_3284)">
<path d="M33.9815 1.45865C33.9256 1.45865 33.8684 1.46558 33.8142 1.4575C32.9772 1.33697 32.1399 1.35007 31.3029 1.45442C30.7685 1.52103 30.2243 1.55453 29.7043 1.67698C29.019 1.83794 28.3445 2.04934 27.681 2.27922C26.752 2.60074 25.9117 3.08014 25.1451 3.66659C24.0151 4.53104 23.1276 5.58033 22.555 6.83794C22.254 7.49831 21.9951 8.18372 21.8072 8.87875C21.6358 9.51295 21.5856 10.176 21.4812 10.8264C21.4747 10.868 21.4594 10.9084 21.4344 11C21.3542 10.9099 21.2897 10.858 21.2523 10.7917C20.7561 9.91379 20.121 9.13328 19.3946 8.41245C18.3772 7.40282 17.2193 6.56532 15.9293 5.88607C15.0891 5.44364 14.2074 5.09362 13.2861 4.82446C12.388 4.56185 11.4713 4.39088 10.5365 4.33928C9.9051 4.30424 9.26835 4.34121 8.63489 4.36701C7.85304 4.39897 7.09009 4.55761 6.344 4.76401C4.93526 5.15446 3.62888 5.75553 2.41171 6.52681C1.61176 7.03355 0.856217 7.59265 0.149587 8.20991C0.114235 8.24071 0.0612074 8.25342 0.0164008 8.2746C0.0122901 8.22338 -0.0115519 8.16447 0.0069462 8.12173C0.551614 6.83486 1.35073 5.70163 2.34634 4.68122C3.44678 3.55338 4.71945 2.63193 6.16066 1.92997C6.87017 1.58457 7.62777 1.31849 8.38167 1.0632C9.80809 0.579947 11.2941 0.443636 12.8015 0.494849C13.802 0.52912 14.7783 0.696621 15.7415 0.960771C17.1227 1.33967 18.3949 1.92535 19.5817 2.67852C19.756 2.78942 19.8542 2.75592 20.0014 2.64618C20.9312 1.95538 21.9478 1.40321 23.0388 0.961927C23.9201 0.605361 24.8319 0.352762 25.7695 0.184491C26.211 0.105169 26.6636 0.0751342 27.1125 0.0404789C27.4656 0.0131396 27.8224 -0.00880876 28.1759 0.00351315C28.9195 0.0296972 29.6578 0.0970826 30.3916 0.231468C31.2252 0.383952 32.0305 0.616143 32.8235 0.891076C33.1622 1.00852 33.4919 1.14907 33.8232 1.28422C33.8877 1.31041 33.9416 1.35931 34.0004 1.39743L33.9823 1.45904L33.9815 1.45865Z" fill="#2E368F"/>
</g>
<defs>
<clipPath id="clip0_703_3284">
<rect width="34" height="11" fill="white"/>
</clipPath>
</defs>
</svg>
