<svg width="17" height="17" viewBox="0 0 17 17" fill="none" xmlns="http://www.w3.org/2000/svg">
<path d="M0.875201 5.49299H4.27851V16.536H0.875201V5.49299ZM2.5698 0C3.65716 0 4.5327 0.898854 4.5327 1.98318C4.5327 3.06752 3.65716 3.98064 2.5698 3.98064C1.48244 3.98064 0.592773 3.08178 0.592773 1.98318C0.592773 0.884586 1.46831 0 2.5698 0Z" fill="#2E368F"/>
<path d="M6.4082 5.49276H9.67029V7.00512H9.71265C10.1645 6.1348 11.2801 5.22168 12.9324 5.22168C16.378 5.22168 16.9994 7.50448 16.9994 10.4864V16.5358H13.6102V11.1712C13.6102 9.88716 13.582 8.24639 11.845 8.24639C10.1081 8.24639 9.8115 9.64461 9.8115 11.0856V16.5501H6.42232V5.49276H6.4082Z" fill="#2E368F"/>
</svg>
