<svg width="23" height="23" viewBox="0 0 23 23" fill="none" xmlns="http://www.w3.org/2000/svg">
<mask id="mask0_570_2219" style="mask-type:alpha" maskUnits="userSpaceOnUse" x="0" y="0" width="23" height="23">
<rect width="23" height="23" fill="#D9D9D9"/>
</mask>
<g mask="url(#mask0_570_2219)">
<path d="M11.4987 11.5001C12.0258 11.5001 12.477 11.3124 12.8523 10.9371C13.2277 10.5617 13.4154 10.1105 13.4154 9.58341C13.4154 9.05633 13.2277 8.60512 12.8523 8.22977C12.477 7.85442 12.0258 7.66675 11.4987 7.66675C10.9716 7.66675 10.5204 7.85442 10.1451 8.22977C9.7697 8.60512 9.58203 9.05633 9.58203 9.58341C9.58203 10.1105 9.7697 10.5617 10.1451 10.9371C10.5204 11.3124 10.9716 11.5001 11.4987 11.5001ZM11.4987 21.0834C8.92717 18.8952 7.00651 16.8628 5.73672 14.986C4.46693 13.1093 3.83203 11.3723 3.83203 9.77508C3.83203 7.37925 4.60269 5.47057 6.14401 4.04904C7.68533 2.62751 9.47023 1.91675 11.4987 1.91675C13.5272 1.91675 15.3121 2.62751 16.8534 4.04904C18.3947 5.47057 19.1654 7.37925 19.1654 9.77508C19.1654 11.3723 18.5305 13.1093 17.2607 14.986C15.9909 16.8628 14.0702 18.8952 11.4987 21.0834Z" fill="white"/>
</g>
</svg>
