<svg width="126" height="74" viewBox="0 0 126 74" fill="none" xmlns="http://www.w3.org/2000/svg">
<g clip-path="url(#clip0_889_1609)">
<path d="M116.407 36.6711C112.857 36.6711 109.307 36.6652 105.757 36.6831C105.291 36.6831 104.981 36.5366 104.664 36.2137C102.627 34.121 100.572 32.0461 98.5205 29.9653C93.418 24.7872 88.3156 19.6122 83.2131 14.4311C78.8169 9.96752 74.4208 5.50695 70.0337 1.03741L69.0169 0H59.2838L56.8392 2.86708C53.9165 6.26034 51.006 9.66257 48.0955 13.0648C47.6693 13.5641 47.2583 14.0783 46.7195 14.73H51.0852C50.8812 14.9842 50.7716 15.1396 50.6437 15.2801C44.1987 22.3806 37.7475 29.481 31.3085 36.5874C31.0041 36.9223 30.6966 37.0747 30.2278 37.0717C26.7662 37.0508 23.3047 37.0598 19.8432 37.0598C19.5844 37.0598 19.3256 37.0598 18.8994 37.0598C19.0943 37.275 19.1612 37.3588 19.2373 37.4365C23.2103 41.326 27.1833 45.2215 31.1715 49.0961C31.3603 49.2785 31.7134 49.3861 31.9905 49.3861C55.8406 49.3981 79.6937 49.4011 103.544 49.3861C103.83 49.3861 104.186 49.2367 104.39 49.0393C108.354 45.2006 112.3 41.347 116.248 37.4963C116.489 37.2601 116.738 37.0359 117.122 36.6801C116.744 36.6801 116.574 36.6801 116.407 36.6801V36.6711ZM85.6395 37.0717C85.7552 37.1913 85.8587 37.3289 86.0292 37.5292H74.3507C76.3296 35.4394 78.2111 33.4513 80.1534 31.4004C82.044 33.3556 83.8433 35.2122 85.6395 37.0717ZM63.266 26.1147C65.2722 23.983 67.1628 21.968 69.1204 19.8872C71.1115 21.956 73.0508 23.9711 75.1149 26.1147H63.266ZM66.0942 33.8908C66.0729 35.6397 64.6177 37.0747 62.8824 37.0568C61.1349 37.0389 59.7344 35.5919 59.7527 33.822C59.7679 32.07 61.2384 30.6111 62.9524 30.644C64.6847 30.6769 66.1156 32.1538 66.0942 33.8908ZM53.0245 26.0339C53.0397 24.6587 53.816 23.8664 55.0643 23.9083C55.8619 23.9352 56.5195 24.4464 56.7417 25.2506C56.8209 25.5406 56.8544 25.8516 56.8544 26.1535C56.8635 29.2448 56.8635 32.3331 56.8635 35.4244C56.8635 36.4708 56.3947 37.2571 55.6214 37.5471C54.291 38.0434 53.0427 37.1046 53.0275 35.5679C53.0093 33.9804 53.0245 32.3899 53.0245 30.8024C53.0245 29.2149 53.0123 27.6244 53.0275 26.0369L53.0245 26.0339ZM43.3797 33.7562C43.4315 31.9863 44.9019 30.5812 46.6373 30.647C48.3726 30.7127 49.7639 32.2106 49.7121 33.9535C49.6604 35.6905 48.1777 37.0957 46.4333 37.0538C44.698 37.0149 43.328 35.5321 43.3797 33.7532V33.7562ZM107.209 42.1302C105.757 43.6281 104.299 45.1199 102.859 46.6267C102.548 46.9526 102.219 47.0841 101.757 47.0841C79.3497 47.0722 56.9427 47.0722 34.5387 47.0841C34.0424 47.0841 33.7258 46.9227 33.4092 46.5669C31.89 44.8658 30.3404 43.1886 28.803 41.5024C28.6629 41.347 28.5411 41.1706 28.3798 40.9613H108.314C107.855 41.4486 107.538 41.7924 107.212 42.1302H107.209Z" fill="#2E368F"/>
<path d="M47.9866 61.575C48.1784 60.9202 48.0444 60.3582 47.5117 59.9306C47.0946 59.5958 46.1477 59.6287 45.6332 60.0502C44.9909 60.5764 44.3759 61.1504 43.837 61.7753C43.2738 62.427 42.8141 63.1625 42.3057 63.862C42.2478 63.59 42.2935 63.3628 42.3483 63.1385C42.4853 62.5675 42.6801 62.0055 42.7532 61.4285C42.9359 59.9904 42.1413 59.3716 40.7408 59.8619C40.3755 59.9904 40.0041 60.2087 39.7423 60.4837C39.0816 61.1833 38.4758 61.9307 37.8669 62.6751C37.5624 63.0459 37.3006 63.4495 37.0205 63.8351C36.9779 63.8112 36.9353 63.7873 36.8927 63.7604C37.2884 62.439 37.6842 61.1205 38.1044 59.7064C36.6004 59.7931 35.2243 60.0801 33.8635 60.4508C35.0203 60.9142 35.0477 60.9202 34.722 62.149C34.3567 63.5152 33.9365 64.8636 33.5377 66.2209C33.2363 67.2553 32.9319 68.2867 32.6152 69.366H35.1208C35.684 67.913 36.095 66.4511 36.8044 65.1476C37.465 63.9398 38.4362 62.8934 39.2978 61.7962C39.4013 61.6646 39.6814 61.6646 39.8823 61.6048C39.9067 61.8081 39.9889 62.0234 39.9462 62.2088C39.7971 62.8216 39.6022 63.4226 39.4256 64.0265C38.9142 65.7784 38.4057 67.5303 37.8638 69.3899C38.6463 69.3899 39.3343 69.372 40.0163 69.3989C40.3664 69.4108 40.5338 69.2913 40.6251 68.9654C40.8413 68.1911 41.0666 67.4167 41.3284 66.6544C41.9495 64.8486 43.0394 63.3209 44.3515 61.9457C44.519 61.7693 44.8356 61.7304 45.0852 61.6288C45.1035 61.8948 45.1887 62.1789 45.1279 62.427C44.9421 63.1864 44.6956 63.9308 44.4794 64.6842C44.1932 65.6648 43.8796 66.6394 43.6391 67.632C43.3164 68.9534 44.1141 69.7098 45.4658 69.3989C45.6363 69.36 45.7976 69.2823 45.9559 69.2075C46.8967 68.7621 47.5025 67.9908 48.017 67.1387C48.0718 67.049 48.0231 66.8995 48.0231 66.7799C47.743 66.8786 47.6334 67.0341 47.4903 67.1566C47.1555 67.4436 46.8084 67.7187 46.4644 67.9967C46.4857 67.5483 46.4278 67.0819 46.5405 66.6574C46.9911 64.9563 47.4873 63.2671 47.9805 61.5779L47.9866 61.575Z" fill="#2E368F"/>
<path d="M21.6399 57.3114C21.8682 56.5461 22.0844 55.7748 22.3432 54.8809C20.8605 54.9765 19.5453 55.2635 18.2423 55.6701C18.7842 55.8495 19.3748 55.9661 19.2226 56.6477C18.9425 57.9064 18.565 59.1441 18.218 60.4297C16.8266 59.5238 15.7824 59.5387 14.5311 60.4356C14.1749 60.6898 13.8279 60.9738 13.5356 61.2967C11.9068 63.0905 10.8322 65.1085 10.9722 67.5959C11.0179 68.4001 11.2858 69.1056 12.0773 69.4704C12.8993 69.8501 13.6513 69.593 14.2845 69.0399C14.7077 68.6662 15.07 68.2177 15.4232 67.7752C15.7489 67.3687 16.026 66.9232 16.3243 66.4957C16.306 67.0787 16.1234 67.5959 16.0594 68.122C15.9224 69.2402 16.5618 69.8052 17.6882 69.6019C19.1465 69.3358 19.868 68.2656 20.6017 67.0637C19.9929 66.9501 19.9868 67.4853 19.7097 67.6437C19.3901 67.8261 19.0613 67.9935 18.7386 68.1669C18.7386 67.8201 18.6594 67.4524 18.7538 67.1325C19.7036 63.8558 20.6809 60.5851 21.649 57.3114H21.6399ZM15.137 67.2879C14.9117 67.5301 14.3119 67.7633 14.1293 67.6437C13.8492 67.4613 13.6209 66.9501 13.6543 66.6033C13.8644 64.4926 14.5768 62.5463 15.8676 60.8273C16.163 60.4356 16.5648 60.0859 17.1098 60.2981C17.6639 60.5134 17.74 61.0336 17.7643 61.7332C17.3868 63.6854 16.6501 65.6645 15.137 67.2849V67.2879Z" fill="#2E368F"/>
<path d="M58.4863 64.2782C58.9095 62.8282 59.3448 61.3812 59.8106 59.8117C58.7238 60.1525 57.2868 59.2167 56.9702 61.0972C56.276 59.6442 55.3414 59.3094 54.0445 60.1017C51.2436 61.8117 49.8888 64.3619 49.8614 67.5728C49.8523 68.7089 50.5008 69.4892 51.3623 69.6118C52.2056 69.7343 52.8998 69.3995 53.4417 68.8105C54.0749 68.1229 54.6473 67.3785 55.3658 66.5145C55.1892 67.1752 55.04 67.6505 54.9365 68.1379C54.7173 69.1543 55.2775 69.7463 56.3339 69.6357C57.9566 69.4653 58.7816 68.3651 59.4331 67.0466C59.2413 67.0526 59.0891 67.1214 58.9795 67.229C58.7816 67.4323 58.6385 67.7014 58.4132 67.8628C58.2062 68.0093 57.92 68.0512 57.6704 68.1379C57.643 67.8957 57.5425 67.6356 57.6004 67.4144C57.8713 66.362 58.1788 65.3186 58.4833 64.2752L58.4863 64.2782ZM56.1025 63.7072C55.6093 64.8313 54.97 65.8956 54.3763 66.9779C54.2759 67.1602 54.1054 67.3456 53.9227 67.4413C53.6457 67.5818 53.2742 67.7881 53.0459 67.7014C52.8267 67.6177 52.708 67.2111 52.6045 66.9241C52.5405 66.7507 52.5923 66.5384 52.5923 66.3441C52.7719 64.4008 53.5087 62.6548 54.5681 61.0284C54.6747 60.867 54.8147 60.7205 54.9639 60.592C55.6032 60.0508 56.1604 60.2272 56.3856 61.0344C56.6444 61.9582 56.4678 62.8731 56.1025 63.7072Z" fill="#2E368F"/>
<path d="M31.181 62.0949C31.3911 61.3803 31.592 60.6598 31.8234 59.8437C30.703 60.0619 29.333 59.3593 28.9829 61.1143C28.9007 60.9289 28.8337 60.7974 28.7789 60.6598C28.4654 59.9035 28.1183 59.6553 27.3085 59.748C26.8792 59.7988 26.4286 59.9094 26.0542 60.1127C24.2153 61.1113 23.1437 62.7317 22.4069 64.6032C21.9503 65.7602 21.6976 66.9441 22.0203 68.1758C22.3978 69.6198 23.8104 70.1341 24.9917 69.1893C25.6675 68.6512 26.1912 67.9247 26.7727 67.273C26.9432 67.0816 27.0802 66.8604 27.2354 66.6541C27.2506 67.1295 27.1228 67.5181 27.0284 67.9157C26.7148 69.2282 27.3268 69.8351 28.6724 69.584C30.1337 69.3119 30.8705 68.2595 31.5007 67.0547C31.3271 67.0547 31.1658 67.0936 31.0653 67.1922C30.8492 67.4075 30.7 67.7005 30.4564 67.8769C30.2525 68.0264 29.9602 68.0592 29.7075 68.1459C29.6771 67.9008 29.6253 67.6586 29.6253 67.4135C29.6253 67.267 29.6953 67.1205 29.7379 66.974C30.222 65.3476 30.7091 63.7242 31.1871 62.0979L31.181 62.0949ZM28.1761 63.5897C27.7378 64.7766 27.0223 65.8648 26.4195 66.9919C26.3799 67.0667 26.319 67.1504 26.246 67.1863C25.8563 67.3776 25.3874 67.7752 25.08 67.6796C24.7786 67.5869 24.6416 66.9919 24.5198 66.7737C24.8151 64.5015 25.494 62.6211 26.6874 60.9319C26.7879 60.7914 26.9127 60.6628 27.0497 60.5552C27.686 60.0679 28.3345 60.2592 28.3832 61.0395C28.4349 61.8886 28.4593 62.8124 28.1731 63.5867L28.1761 63.5897Z" fill="#2E368F"/>
<path d="M8.75927 63.898C9.14287 62.5885 9.53255 61.2821 9.95573 59.85C9.10329 59.9098 8.34523 59.8829 7.63283 60.0563C7.39841 60.1131 7.28881 60.6752 7.09092 61.0728C7.00567 60.8964 6.94174 60.7708 6.88694 60.6423C6.56423 59.8979 6.21412 59.6557 5.39821 59.7544C4.97199 59.8052 4.52142 59.9248 4.14695 60.1281C2.2594 61.1505 1.20603 62.8277 0.46623 64.7441C0.0156534 65.9101 -0.173101 67.1059 0.183097 68.3197C0.56974 69.6412 1.93669 70.0687 3.06922 69.2435C3.42238 68.9864 3.75422 68.6845 4.03431 68.3556C4.51228 67.7935 4.94459 67.1926 5.39821 66.6096C5.42561 66.6216 5.45301 66.6336 5.48041 66.6485C5.34646 67.2135 5.16684 67.7726 5.09377 68.3436C4.97808 69.2375 5.4317 69.674 6.3633 69.6441C7.63892 69.6083 9.25551 68.3765 9.59649 67.1717C9.60867 67.1268 9.54778 67.0611 9.47471 66.8966C9.12765 67.2733 8.83842 67.6321 8.49745 67.9341C8.34218 68.0716 8.08036 68.0955 7.86725 68.1702C7.82158 67.937 7.68763 67.6829 7.74243 67.4736C8.05905 66.2778 8.41525 65.0909 8.76231 63.904L8.75927 63.898ZM6.5825 61.8561C6.47594 63.9369 5.63263 65.7247 4.25655 67.2704C4.02213 67.5334 3.45586 67.7786 3.19404 67.671C2.92918 67.5633 2.6978 67.0013 2.71607 66.6545C2.8348 64.493 3.62331 62.5467 4.92633 60.8187C5.13335 60.5436 5.7331 60.2626 5.96143 60.3702C6.26588 60.5167 6.40288 61.0309 6.57336 61.4017C6.63121 61.5272 6.5825 61.7036 6.5825 61.8561Z" fill="#2E368F"/>
<path d="M81.1372 59.7841C80.4735 59.5868 79.7977 59.8618 79.5023 60.4448C79.2192 61.0069 79.3806 61.4404 80.0777 61.9845C80.7901 62.5436 80.9332 62.9621 80.4461 63.7992C79.7215 65.0429 78.9056 66.2358 78.1232 67.4466C77.9923 67.6499 77.8279 67.8323 77.5965 68.1282C77.5478 67.8622 77.5204 67.7605 77.5143 67.6589C77.4199 65.9189 77.3804 64.1759 77.2129 62.4449C77.1368 61.6616 76.8324 60.8992 76.5949 60.1339C76.4883 59.7871 76.2204 59.7064 75.8551 59.823C75.097 60.0621 74.3268 60.2595 73.5657 60.4867C73.3739 60.5435 73.1943 60.6451 73.0086 60.7258C74.2355 61.1055 74.4455 61.3178 74.683 62.5047C74.7134 62.6542 74.7287 62.8066 74.7378 62.9591C74.823 64.7619 74.9265 66.5647 74.9813 68.3704C75.0087 69.3032 75.0514 70.2599 74.8717 71.1657C74.7865 71.5992 74.2476 72.0148 73.8153 72.2898C73.4043 72.5529 73.0938 72.1463 72.8289 71.8504C72.7406 71.7517 72.6554 71.6501 72.5488 71.5723C72.1257 71.2704 71.6142 71.097 71.1941 71.4288C70.8714 71.6859 70.5547 72.1254 70.5091 72.5141C70.3721 73.704 71.6599 74.4065 72.8472 73.7428C73.6814 73.2764 74.479 72.6785 75.1427 71.9969C77.4656 69.6111 79.3471 66.8905 81.0154 64.0354C81.5025 63.2013 81.8222 62.2566 82.0901 61.3268C82.2758 60.681 81.743 59.9635 81.1402 59.7841H81.1372Z" fill="#2E368F"/>
<path d="M71.523 66.861C71.0298 66.87 71.0055 67.3543 70.7345 67.5397C70.3783 67.7848 70.0099 68.018 69.6477 68.2572C69.6416 67.8476 69.535 67.4111 69.6446 67.0344C70.4392 64.2779 71.2764 61.5304 72.1015 58.78C72.479 57.5153 72.8565 56.2507 73.2888 54.8037C71.7788 55.0578 70.3996 55.288 69.0205 55.5182C69.0296 55.596 69.0418 55.6707 69.0509 55.7484C70.2017 56.0444 70.2748 56.179 69.9247 57.3449C69.7999 57.7605 69.6811 58.179 69.5563 58.5976C68.6521 61.665 67.7357 64.7264 66.8498 67.7998C66.4967 69.0195 67.2486 69.7998 68.5364 69.6205C69.6385 69.465 71.2064 68.0449 71.52 66.864L71.523 66.861Z" fill="#2E368F"/>
<path d="M64.3285 67.8982C64.1184 68.0746 63.8109 68.1374 63.5491 68.254C63.5156 67.9729 63.3938 67.668 63.4638 67.4139C64.0514 65.345 64.6755 63.2852 65.2905 61.2223C65.9055 59.1624 66.5204 57.1026 67.1537 54.9859C66.146 54.8244 63.1868 55.4014 63.0072 55.7662C64.0575 56.0113 64.1701 56.1489 63.8748 57.2012C63.3634 59.0219 62.8001 60.8277 62.2674 62.6394C61.7529 64.3883 61.2384 66.1403 60.7391 67.8952C60.3463 69.2734 61.558 69.7817 62.4957 69.6113C64.0301 69.3273 64.7181 68.1194 65.4549 66.9505C65.2631 66.9415 65.0957 66.9893 64.9982 67.097C64.7608 67.3541 64.5933 67.68 64.3285 67.9012V67.8982Z" fill="#2E368F"/>
<path d="M87.8226 59.7996C87.5151 59.7577 87.2046 59.7248 86.894 59.7188C84.6472 59.674 83.2772 61.1359 83.8405 63.0583C84.0049 63.6173 84.4219 64.1226 84.7934 64.6009C85.4236 65.4111 86.1603 66.1466 86.7509 66.9807C87.2533 67.6863 87.1498 68.344 86.6413 68.8223C86.136 69.2977 85.384 69.3276 84.6716 68.93C83.8557 68.4755 83.4995 67.7221 83.2255 66.9C83.1402 66.6459 83.0215 66.4007 82.921 66.1526C82.8571 66.1705 82.7932 66.1855 82.7292 66.2034C82.5618 67.3156 82.3944 68.4277 82.2178 69.6056C82.3517 69.6056 82.4705 69.6415 82.5131 69.5997C83.0032 69.1303 83.5543 69.2439 84.1297 69.3904C84.5346 69.495 84.9517 69.5698 85.3688 69.6236C86.6748 69.791 88.1118 69.1183 88.7298 68.063C89.4331 66.8671 89.3418 65.6503 88.4041 64.4873C87.7312 63.6532 86.9884 62.8729 86.3034 62.0448C85.9594 61.6292 85.8498 61.1359 86.1755 60.6516C86.4922 60.1792 87.1193 60.0238 87.7252 60.2659C88.6354 60.6277 89.1682 61.3123 89.3874 62.2421C89.4361 62.4544 89.5092 62.6607 89.5701 62.8699C89.6523 62.8699 89.7345 62.864 89.8136 62.861C89.9628 61.8265 90.112 60.7921 90.2612 59.7547C90.2307 59.7099 90.2003 59.662 90.1668 59.6172C89.3996 60.3407 88.605 59.9072 87.8165 59.7996H87.8226Z" fill="#2E368F"/>
<path d="M124.347 63.9074C124.523 63.166 124.697 62.4216 124.861 61.728C124.459 61.7638 124.073 61.9014 123.759 61.8087C122.133 61.3244 120.693 61.716 119.357 62.6278C118.035 63.5307 117.335 64.8252 117.241 66.3769C117.174 67.4681 117.554 68.4487 118.571 69.0526C119.686 69.7133 120.848 69.6864 122.002 69.1632C122.617 68.8852 123.019 68.3799 123.348 67.8239C122.974 68.0361 122.678 68.3321 122.325 68.5444C121.564 69.0078 120.736 69.1244 119.926 68.6998C119.131 68.2813 119.019 67.498 119.058 66.7207C119.125 65.4561 119.512 64.2692 120.313 63.2736C120.669 62.8282 121.168 62.4395 121.683 62.1824C122.77 61.6413 123.85 62.2183 124.1 63.3932C124.136 63.5636 124.161 63.74 124.188 63.9104C124.24 63.9104 124.292 63.9104 124.344 63.9104L124.347 63.9074Z" fill="#2E368F"/>
<path d="M112.778 67.381C112.696 67.4498 112.613 67.5155 112.54 67.5933C111.798 68.4065 110.875 68.8609 109.764 68.9625C108.933 69.0373 108.738 68.831 108.966 68.0537C109.371 66.6784 109.755 65.2942 110.19 63.9279C110.458 63.0879 110.458 62.0475 111.618 61.7874H108.162C108.841 61.9697 109.009 62.3524 108.814 62.9832C108.315 64.6036 107.846 66.233 107.362 67.8593C107.164 68.5201 107.003 69.2137 106.08 69.3213C108.05 69.393 109.968 69.396 111.886 69.3811C112.002 69.3811 112.175 69.2555 112.221 69.1449C112.467 68.5739 112.683 67.9909 112.912 67.3989C112.817 67.384 112.787 67.372 112.778 67.381Z" fill="#2E368F"/>
<path d="M98.8409 67.9728C99.2945 66.4062 99.7634 64.8426 100.229 63.2791C100.43 62.6064 100.658 61.9576 101.493 61.7334C101.35 61.7334 101.206 61.7334 101.063 61.7334C100.053 61.7334 99.0449 61.7334 98.0341 61.7334C98.7587 62.134 98.847 62.3014 98.6339 63.0219C98.1803 64.5646 97.7114 66.1043 97.2669 67.6529C97.0538 68.4003 96.9381 69.2016 95.8848 69.3271C97.8362 69.3929 99.736 69.3959 101.636 69.3809C101.776 69.3809 101.989 69.2673 102.044 69.1537C102.312 68.5797 102.537 67.9878 102.78 67.4018C101.885 68.2598 100.914 68.8398 99.6812 68.9564C98.7861 69.0401 98.5913 68.8398 98.8409 67.9728Z" fill="#2E368F"/>
<path d="M104.153 67.7422C103.627 67.7452 103.219 68.1578 103.24 68.66C103.261 69.1204 103.691 69.5151 104.163 69.5061C104.653 69.4971 105.051 69.1144 105.061 68.6481C105.07 68.1219 104.686 67.7392 104.153 67.7452V67.7422Z" fill="#2E368F"/>
<path d="M125.123 67.7453C124.6 67.7363 124.177 68.1399 124.183 68.6362C124.189 69.0936 124.6 69.4882 125.084 69.5002C125.604 69.5151 126 69.1235 125.997 68.6033C125.997 68.101 125.638 67.7542 125.12 67.7453H125.123Z" fill="#2E368F"/>
<path d="M114.361 67.7457C113.788 67.7188 113.435 68.0417 113.426 68.5918C113.417 69.1359 113.688 69.4528 114.236 69.5006C114.759 69.5485 115.17 69.1628 115.186 68.6456C115.201 68.1254 114.875 67.7696 114.361 67.7457Z" fill="#2E368F"/>
</g>
<defs>
<clipPath id="clip0_889_1609">
<rect width="126" height="74" fill="white"/>
</clipPath>
</defs>
</svg>
