<svg width="20" height="20" viewBox="0 0 20 20" fill="none" xmlns="http://www.w3.org/2000/svg">
<mask id="mask0_570_2231" style="mask-type:alpha" maskUnits="userSpaceOnUse" x="0" y="0" width="20" height="20">
<rect width="20" height="20" fill="#D9D9D9"/>
</mask>
<g mask="url(#mask0_570_2231)">
<path d="M3.33464 16.6666C2.8763 16.6666 2.48394 16.5034 2.15755 16.177C1.83116 15.8506 1.66797 15.4583 1.66797 14.9999V4.99992C1.66797 4.54159 1.83116 4.14922 2.15755 3.82284C2.48394 3.49645 2.8763 3.33325 3.33464 3.33325H16.668C17.1263 3.33325 17.5187 3.49645 17.8451 3.82284C18.1714 4.14922 18.3346 4.54159 18.3346 4.99992V14.9999C18.3346 15.4583 18.1714 15.8506 17.8451 16.177C17.5187 16.5034 17.1263 16.6666 16.668 16.6666H3.33464ZM10.0013 10.8333L16.668 6.66659V4.99992L10.0013 9.16658L3.33464 4.99992V6.66659L10.0013 10.8333Z" fill="#2E368F"/>
</g>
</svg>
