<svg width="20" height="20" viewBox="0 0 20 20" fill="none" xmlns="http://www.w3.org/2000/svg">
<mask id="mask0_703_3278" style="mask-type:alpha" maskUnits="userSpaceOnUse" x="0" y="0" width="20" height="20">
<rect width="20" height="20" fill="#D9D9D9"/>
</mask>
<g mask="url(#mask0_703_3278)">
<path d="M3.33366 16.6663C2.87533 16.6663 2.48296 16.5031 2.15658 16.1768C1.83019 15.8504 1.66699 15.458 1.66699 14.9997V4.99967C1.66699 4.54134 1.83019 4.14898 2.15658 3.82259C2.48296 3.4962 2.87533 3.33301 3.33366 3.33301H16.667C17.1253 3.33301 17.5177 3.4962 17.8441 3.82259C18.1705 4.14898 18.3337 4.54134 18.3337 4.99967V14.9997C18.3337 15.458 18.1705 15.8504 17.8441 16.1768C17.5177 16.5031 17.1253 16.6663 16.667 16.6663H3.33366ZM10.0003 10.833L16.667 6.66634V4.99967L10.0003 9.16634L3.33366 4.99967V6.66634L10.0003 10.833Z" fill="#2E368F"/>
</g>
</svg>
