<svg width="30" height="30" viewBox="0 0 30 30" fill="none" xmlns="http://www.w3.org/2000/svg">
<mask id="mask0_1218_9039" style="mask-type:alpha" maskUnits="userSpaceOnUse" x="0" y="0" width="30" height="30">
<rect width="30" height="30" fill="#D9D9D9"/>
</mask>
<g mask="url(#mask0_1218_9039)">
<path d="M21.9472 23.8221C20.9174 23.8221 20.047 23.4666 19.3359 22.7555C18.6249 22.0445 18.2694 21.1741 18.2694 20.1443C18.2694 19.1143 18.6249 18.2438 19.3359 17.5327C20.047 16.8217 20.9174 16.4662 21.9472 16.4662C22.977 16.4662 23.8474 16.8217 24.5584 17.5327C25.2695 18.2438 25.625 19.1143 25.625 20.1443C25.625 21.1741 25.2695 22.0445 24.5584 22.7555C23.8474 23.4666 22.977 23.8221 21.9472 23.8221ZM21.9447 22.5721C22.6145 22.5721 23.187 22.3353 23.6622 21.8618C24.1374 21.3883 24.375 20.8165 24.375 20.1465C24.375 19.4767 24.1382 18.9042 23.6647 18.429C23.1911 17.9538 22.6195 17.7162 21.9497 17.7162C21.2797 17.7162 20.7071 17.9529 20.2319 18.4265C19.7569 18.9 19.5194 19.4718 19.5194 20.1418C19.5194 20.8116 19.7561 21.3841 20.2297 21.8593C20.7032 22.3345 21.2749 22.5721 21.9447 22.5721ZM6.25 20.7693V19.5193H15.2884V20.7693H6.25ZM8.05281 13.5337C7.02302 13.5337 6.1526 13.1782 5.44156 12.4671C4.73052 11.7561 4.375 10.8855 4.375 9.85555C4.375 8.82576 4.73052 7.95534 5.44156 7.2443C6.1526 6.53326 7.02302 6.17773 8.05281 6.17773C9.0826 6.17773 9.95302 6.53326 10.6641 7.2443C11.3751 7.95534 11.7306 8.82576 11.7306 9.85555C11.7306 10.8855 11.3751 11.7561 10.6641 12.4671C9.95302 13.1782 9.0826 13.5337 8.05281 13.5337ZM8.05031 12.2837C8.72031 12.2837 9.29292 12.0469 9.76812 11.5734C10.2431 11.0998 10.4806 10.528 10.4806 9.85805C10.4806 9.18826 10.2439 8.61576 9.77031 8.14055C9.29677 7.66534 8.7251 7.42773 8.05531 7.42773C7.38552 7.42773 6.81302 7.6645 6.33781 8.13805C5.8626 8.61159 5.625 9.18336 5.625 9.85336C5.625 10.5232 5.86177 11.0957 6.33531 11.5709C6.80885 12.0461 7.38052 12.2837 8.05031 12.2837ZM14.7116 10.4805V9.23055H23.75V10.4805H14.7116Z" fill="white"/>
</g>
</svg>
