<svg width="27" height="27" viewBox="0 0 27 27" fill="none" xmlns="http://www.w3.org/2000/svg">
<circle cx="13.5" cy="13.5" r="13.5" fill="white"/>
<path d="M23.8543 15.4239C23.1315 15.4239 22.4087 15.4227 21.6859 15.4263C21.591 15.4263 21.5278 15.3966 21.4633 15.3313C21.0486 14.9076 20.6302 14.4876 20.2124 14.0663C19.1734 13.018 18.1345 11.9704 17.0955 10.9215C16.2004 10.0179 15.3052 9.11485 14.4119 8.21002L14.2049 8H12.223L11.7253 8.58042C11.1301 9.26737 10.5375 9.95613 9.94489 10.6449C9.8581 10.746 9.77442 10.8501 9.66469 10.982H10.5536C10.5121 11.0335 10.4898 11.0649 10.4638 11.0934C9.15141 12.5308 7.83783 13.9683 6.52673 15.4069C6.46474 15.4747 6.40213 15.5056 6.30667 15.505C5.60183 15.5007 4.897 15.5025 4.19217 15.5025C4.13948 15.5025 4.08679 15.5025 4 15.5025C4.03967 15.5461 4.05331 15.5631 4.06881 15.5788C4.87779 16.3662 5.68676 17.1549 6.49884 17.9392C6.53727 17.9762 6.60918 17.998 6.66559 17.998C11.5219 18.0004 16.3789 18.001 21.2352 17.998C21.2935 17.998 21.366 17.9677 21.4076 17.9277C22.2147 17.1506 23.0181 16.3705 23.8221 15.5909C23.8711 15.5431 23.9219 15.4977 24 15.4257C23.9231 15.4257 23.8884 15.4257 23.8543 15.4257V15.4239ZM17.5896 15.505C17.6131 15.5292 17.6342 15.557 17.6689 15.5976H15.291C15.6939 15.1745 16.077 14.772 16.4725 14.3568C16.8575 14.7527 17.2238 15.1285 17.5896 15.505ZM13.0339 13.2868C13.4424 12.8552 13.8274 12.4473 14.226 12.0261C14.6314 12.4449 15.0263 12.8528 15.4465 13.2868H13.0339ZM13.6098 14.861C13.6054 15.2151 13.3091 15.5056 12.9558 15.5019C12.5999 15.4983 12.3148 15.2054 12.3185 14.8471C12.3216 14.4924 12.621 14.197 12.97 14.2037C13.3228 14.2104 13.6141 14.5094 13.6098 14.861ZM10.9485 13.2704C10.9516 12.992 11.1097 12.8316 11.3639 12.8401C11.5263 12.8455 11.6602 12.949 11.7054 13.1119C11.7215 13.1706 11.7284 13.2335 11.7284 13.2946C11.7302 13.9205 11.7302 14.5457 11.7302 15.1715C11.7302 15.3833 11.6348 15.5425 11.4773 15.6012C11.2064 15.7017 10.9522 15.5116 10.9491 15.2005C10.9454 14.8792 10.9485 14.5572 10.9485 14.2358C10.9485 13.9144 10.946 13.5924 10.9491 13.271L10.9485 13.2704ZM8.98466 14.8338C8.9952 14.4755 9.29461 14.191 9.64796 14.2043C10.0013 14.2176 10.2846 14.5208 10.2741 14.8737C10.2635 15.2253 9.96163 15.5098 9.60642 15.5013C9.25308 15.4935 8.97412 15.1933 8.98466 14.8332V14.8338ZM21.9816 16.529C21.6859 16.8323 21.389 17.1343 21.0957 17.4393C21.0325 17.5053 20.9656 17.5319 20.8713 17.5319C16.3088 17.5295 11.7463 17.5295 7.18445 17.5319C7.08341 17.5319 7.01894 17.4992 6.95447 17.4272C6.64513 17.0828 6.3296 16.7433 6.01655 16.4019C5.98804 16.3705 5.96324 16.3348 5.93038 16.2924H22.2066C22.113 16.391 22.0485 16.4606 21.9822 16.529H21.9816Z" fill="#2E368F"/>
</svg>
