<svg width="21" height="21" viewBox="0 0 21 21" fill="none" xmlns="http://www.w3.org/2000/svg">
<mask id="mask0_570_2225" style="mask-type:alpha" maskUnits="userSpaceOnUse" x="0" y="0" width="21" height="21">
<rect width="21" height="21" fill="#D9D9D9"/>
</mask>
<g mask="url(#mask0_570_2225)">
<path d="M15.75 6.125H5.25V2.625H15.75V6.125ZM15.75 10.9375C15.9979 10.9375 16.2057 10.8536 16.3734 10.6859C16.5411 10.5182 16.625 10.3104 16.625 10.0625C16.625 9.81458 16.5411 9.60677 16.3734 9.43906C16.2057 9.27135 15.9979 9.1875 15.75 9.1875C15.5021 9.1875 15.2943 9.27135 15.1266 9.43906C14.9589 9.60677 14.875 9.81458 14.875 10.0625C14.875 10.3104 14.9589 10.5182 15.1266 10.6859C15.2943 10.8536 15.5021 10.9375 15.75 10.9375ZM14 16.625V13.125H7V16.625H14ZM15.75 18.375H5.25V14.875H1.75V9.625C1.75 8.88125 2.00521 8.25781 2.51562 7.75469C3.02604 7.25156 3.64583 7 4.375 7H16.625C17.3687 7 17.9922 7.25156 18.4953 7.75469C18.9984 8.25781 19.25 8.88125 19.25 9.625V14.875H15.75V18.375Z" fill="#2E368F"/>
</g>
</svg>
