<svg width="20" height="21" viewBox="0 0 20 21" fill="none" xmlns="http://www.w3.org/2000/svg">
<g clip-path="url(#clip0_703_3287)">
<path d="M10.2453 -0.000128342C12.1607 0.676164 14.0743 1.36022 15.9934 2.02778C17.4934 2.5498 17.2436 2.4615 16.6767 3.68018C16.2963 4.49717 16.2783 4.50396 15.4502 4.20317C13.8244 3.61129 12.1977 3.0233 10.5718 2.43142C10.1583 2.28102 9.77502 2.28588 9.35295 2.47217C8.1104 3.02039 6.84893 3.523 5.59597 4.04695C5.19567 4.21481 4.94867 4.98037 5.19188 5.32774C5.34992 5.55382 5.61016 5.50627 5.84202 5.50627C9.07283 5.50627 12.3036 5.50627 15.5345 5.50627C16.7004 5.50627 17.0543 5.86431 17.0552 7.04515C17.0552 7.94558 17.0619 8.84601 17.0533 9.74644C17.0467 10.4722 16.9672 10.578 16.3076 10.8351C14.4036 11.5774 12.4967 12.3119 10.5974 13.0648C10.1659 13.2356 9.76934 13.2366 9.33024 13.0794C7.36468 12.374 5.39156 11.6928 3.42127 11.003C2.85063 10.8031 2.81467 10.7255 3.05599 10.1831C3.18564 9.89295 3.34746 9.61448 3.44683 9.31369C3.60013 8.84892 3.87646 8.79944 4.28339 8.94983C5.92056 9.55529 7.56815 10.1336 9.20059 10.7517C9.72959 10.9515 10.2037 10.9661 10.7318 10.7342C11.9327 10.2073 13.1554 9.73383 14.3676 9.23413C14.8786 9.0226 15.014 8.72861 14.8777 8.07948C14.785 7.63509 14.4168 7.72241 14.1178 7.72241C10.8557 7.71756 7.5937 7.7195 4.33166 7.7195C3.40424 7.7195 2.98501 7.30131 2.98028 6.35139C2.97555 5.35491 2.99353 4.35745 2.98501 3.36096C2.98123 2.87872 3.18658 2.59734 3.62568 2.42463C5.55622 1.66489 7.47919 0.885747 9.405 0.114366C9.47313 0.0871978 9.56588 0.103693 9.58575 -0.00109863C9.80625 -0.000128342 10.0258 -0.000128342 10.2453 -0.000128342Z" fill="#2E368F"/>
<path d="M9.96654 16.3104C9.99303 16.3133 10.0205 16.3162 10.047 16.3201C12.2406 17.2885 14.4352 18.2568 16.6288 19.2252C16.6259 19.2407 16.6269 19.2582 16.6203 19.2727C16.3581 19.818 16.2228 20.5516 15.796 20.8533C15.4099 21.126 14.7068 20.9348 14.1437 20.9358C10.9753 20.9387 7.80793 20.93 4.63958 20.9474C4.2828 20.9494 4.10773 20.8378 3.97998 20.5089C3.8191 20.0926 3.60522 19.6967 3.41406 19.2931C3.50397 19.1175 3.6885 19.0884 3.84181 19.0204C5.88212 18.1152 7.92528 17.2138 9.96654 16.3114V16.3104Z" fill="#2E368F"/>
<path d="M9.96688 16.311C7.92467 17.2133 5.88246 18.1138 3.84215 19.02C3.68884 19.0879 3.50525 19.1171 3.4144 19.2927C2.27501 16.8679 1.13561 14.4441 0 12.0271C0.117346 11.9194 0.197786 11.9951 0.279171 12.031C3.44279 13.4156 6.60642 14.8012 9.76909 16.1878C9.83912 16.2188 9.90063 16.2693 9.96688 16.311Z" fill="#2E368F"/>
<path d="M16.6287 19.2248C14.4351 18.2565 12.2405 17.2881 10.0469 16.3198C12.3966 15.2835 14.7426 14.2414 17.0962 13.2148C18.0274 12.8083 18.9359 12.3435 19.903 12.0253C19.9191 12.0427 19.9352 12.0592 19.9522 12.0757C19.2595 13.5797 18.5687 15.0856 17.8722 16.5876C17.4634 17.4696 17.0441 18.3457 16.6287 19.2248Z" fill="#2E368F"/>
<path d="M19.9033 12.0255C19.9336 11.9925 19.9667 11.9673 19.9998 12.0177C20.0036 12.0235 19.9696 12.0556 19.9535 12.075C19.9364 12.0585 19.9204 12.042 19.9043 12.0245L19.9033 12.0255Z" fill="#2E368F"/>
</g>
<defs>
<clipPath id="clip0_703_3287">
<rect width="20" height="21" fill="white"/>
</clipPath>
</defs>
</svg>
