<svg width="174" height="87" viewBox="0 0 174 87" fill="none" xmlns="http://www.w3.org/2000/svg">
<path d="M172.733 64.5876C166.444 64.5876 160.156 64.5771 153.867 64.6087C153.042 64.6087 152.492 64.3507 151.931 63.782C148.323 60.0961 144.683 56.4418 141.048 52.7769C132.009 43.657 122.97 34.5422 113.931 25.417C106.143 17.5555 98.3553 9.6992 90.5838 1.82716L88.7824 0H71.5405L67.2097 5.04969C62.0323 11.0261 56.8764 17.0184 51.7205 23.0106C50.9655 23.89 50.2374 24.7956 49.2828 25.9435H57.0166C56.6553 26.3911 56.4612 26.6649 56.2346 26.9124C44.8173 39.4182 33.3891 51.9239 21.9826 64.4402C21.4433 65.03 20.8986 65.2985 20.068 65.2932C13.936 65.2564 7.80392 65.2722 1.67188 65.2722C1.21346 65.2722 0.755044 65.2722 0 65.2722C0.345163 65.6513 0.463811 65.7987 0.598641 65.9356C7.63673 72.7862 14.6748 79.6472 21.7399 86.4714C22.0743 86.7926 22.6999 86.9822 23.1907 86.9822C65.4408 87.0032 107.696 87.0085 149.946 86.9822C150.453 86.9822 151.084 86.7189 151.446 86.3714C158.468 79.6104 165.457 72.823 172.452 66.0409C172.878 65.625 173.32 65.2301 174 64.6034C173.331 64.6034 173.029 64.6034 172.733 64.6034V64.5876ZM118.229 65.2932C118.434 65.5039 118.617 65.7461 118.919 66.0989H98.2313C101.737 62.4182 105.07 58.9166 108.511 55.3044C111.86 58.7481 115.047 62.018 118.229 65.2932ZM78.5947 45.9949C82.1488 42.2405 85.498 38.6915 88.9658 35.0267C92.4929 38.6704 95.9284 42.2194 99.585 45.9949H78.5947ZM83.605 59.6907C83.5672 62.771 80.9893 65.2985 77.9152 65.2669C74.8195 65.2353 72.3387 62.6868 72.371 59.5695C72.398 56.4839 75.0029 53.9143 78.0392 53.9722C81.108 54.0302 83.6427 56.6314 83.605 59.6907ZM60.4521 45.8527C60.4791 43.4305 61.8543 42.0352 64.0655 42.1089C65.4785 42.1563 66.6435 43.0567 67.0372 44.4731C67.1774 44.9839 67.2367 45.5315 67.2367 46.0633C67.2529 51.5079 67.2529 56.9473 67.2529 62.3919C67.2529 64.2348 66.4223 65.6197 65.0525 66.1305C62.6957 67.0045 60.4845 65.3512 60.4575 62.6446C60.4251 59.8486 60.4521 57.0473 60.4521 54.2513C60.4521 51.4553 60.4305 48.654 60.4575 45.858L60.4521 45.8527ZM43.3665 59.4537C43.4582 56.3365 46.0631 53.8617 49.1372 53.9775C52.2113 54.0933 54.676 56.7314 54.5843 59.8012C54.4926 62.8605 51.8662 65.3354 48.7759 65.2616C45.7018 65.1932 43.2748 62.5815 43.3665 59.4484V59.4537ZM156.44 74.2026C153.867 76.8407 151.284 79.4682 148.733 82.122C148.183 82.696 147.6 82.9277 146.781 82.9277C107.087 82.9066 67.3931 82.9066 27.7047 82.9277C26.8256 82.9277 26.2648 82.6433 25.7039 82.0167C23.0127 79.0206 20.2676 76.0666 17.544 73.0968C17.2959 72.823 17.0802 72.5123 16.7943 72.1438H158.398C157.583 73.002 157.022 73.6076 156.445 74.2026H156.44Z" fill="white" fill-opacity="0.23"/>
</svg>
